<svg xmlns="http://www.w3.org/2000/svg" width="67" height="80" viewBox="0 0 67 80">
    <path fill="#FFF" d="M52.973 79.835c-.163 0-.324-.052-.46-.151-.198-.147-.315-.38-.314-.627l.086-13.916-15.029 3.235c-2.594.559-5.224.559-7.818 0L14.41 65.141l.085 13.916c.002.247-.115.48-.314.627-.2.147-.457.19-.692.115-.3-.095-7.397-2.448-9.47-12.817l-.308-1.529C1.638 55.15-1.202 41.04.725 28.932c0-.01.002-.018.004-.027C2.78 16.055 8.863 6.935 17.854 3.224 26.254-.243 32.68-.019 33.347.015c.668-.034 7.092-.258 15.493 3.209 8.992 3.71 15.073 12.83 17.126 25.68l.004.028c1.926 12.107-.913 26.217-2.987 36.521l-.307 1.529c-2.074 10.37-9.17 12.722-9.47 12.817-.077.024-.155.036-.233.036zm.864-15.647l-.084 13.688c1.91-1.007 5.956-3.94 7.408-11.197l.307-1.53c1.98-9.843 4.668-23.198 3.151-34.76L37.464 49.256c-.073.077-.163.14-.262.182L34.12 51.58v6.85l7.375 4.916 2.654-2.359-4.517-4.76c-.154-.162-.23-.384-.208-.607.021-.223.139-.425.321-.555l20.813-14.788c.292-.207.691-.187.96.052.269.238.338.631.167.947L53.904 55.62l-.067 8.568zm-51.76-33.8c-1.517 11.563 1.17 24.918 3.15 34.76l.308 1.53c1.438 7.192 5.5 10.162 7.407 11.186l-.084-13.676-.067-8.57-7.78-14.343c-.172-.316-.103-.708.166-.947.27-.238.668-.26.96-.051L26.95 55.064c.183.13.3.332.322.556.022.222-.055.444-.209.606l-4.516 4.76 2.654 2.36 7.374-4.917v-6.85l-3.081-2.14c-.1-.043-.189-.105-.262-.183L2.076 30.388zm12.322 33.17l15.365 3.308c2.378.511 4.79.511 7.168 0l15.364-3.308.064-8.144c.001-.126.033-.25.094-.362l6.284-11.585-17.37 12.342 4.453 4.693c.144.153.22.356.211.565-.008.21-.102.406-.258.545L42.077 64.9c-.264.233-.65.26-.942.065l-7.787-5.191-7.786 5.19c-.293.196-.68.169-.942-.064l-3.697-3.287c-.156-.139-.25-.335-.258-.545-.01-.209.067-.412.211-.565l4.453-4.693L7.958 43.467l6.284 11.585c.06.112.093.236.094.362l.063 8.144zm16.155-15.264l2.794 1.94 2.793-1.94.548-19.206h-6.683l.548 19.206zM24.95 44.4l4.027 2.798-.517-18.11h-4.698c.305 6.62 1.018 13.68 1.188 15.312zm13.285-15.312l-.517 18.11 4.027-2.798c.17-1.633.883-8.694 1.188-15.312h-4.698zm-35.903-.404L23.28 43.24c-.287-2.91-.859-9.132-1.095-14.862-.002-.02-.002-.04-.002-.059-.065-1.59-.105-3.14-.105-4.572 0-.299.002-.605.005-.916 0-.006 0-.012-.002-.018-.005-.06-.003-.12.005-.177.088-6.948.947-16.453 1.256-19.67-1.525.426-3.17.975-4.897 1.688C10.076 8.107 4.366 16.63 2.332 28.684zm42.18-.32c-.236 5.734-.808 11.962-1.095 14.875l20.946-14.555C62.329 16.631 56.619 8.106 48.25 4.653c-1.728-.713-3.373-1.264-4.896-1.688.308 3.214 1.168 12.721 1.256 19.67.008.057.01.117.004.177 0 .006 0 .012-.002.018.003.31.005.617.005.916 0 1.435-.04 2.99-.104 4.585l-.002.033zm-7.023-.822h5.508c.048-1.318.075-2.6.075-3.796v-.292c-1.566-.122-5.532-.395-9.724-.395-4.195 0-8.158.273-9.724.395v.292c0 1.196.027 2.478.075 3.796H37.489zm-4.141-6.03c4.122 0 8.026.261 9.705.39-.145-7.286-1.058-16.969-1.291-19.348-4.984-1.181-8.32-.996-8.366-.993-.033.002-.065.002-.096 0-.046-.003-3.393-.182-8.366.995-.234 2.382-1.146 12.062-1.291 19.346 1.678-.129 5.583-.39 9.705-.39z"/>
</svg>
