<svg xmlns="http://www.w3.org/2000/svg" width="80" height="80" viewBox="0 0 80 80">
    <path fill="#FFF" d="M7.972 79.694c-.223 0-.437-.088-.596-.247l-7.13-7.13c-.175-.175-.265-.42-.243-.669.022-.248.153-.474.357-.616l7.011-4.892c-.16-1.955.54-3.906 1.927-5.311l.01-.011.003-.003.004-.003v-.001l.002-.002.002-.002.002-.003.004-.004.004-.004s.002-.001.002-.003l.008-.008h.001l.006-.006c0-.002.001-.003.002-.003 1.276-1.265 2.968-1.962 4.764-1.962.315 0 .63.022.941.066l10.991-10.523c-.336-2.028.306-4.073 1.767-5.552l.003-.002.002-.003.004-.005.003-.002.002-.002v-.001l.006-.006.002-.002.001-.001.004-.005c1.212-1.212 2.824-1.88 4.538-1.88.421 0 .84.042 1.25.123.043-.101.105-.192.18-.27.114-.114.261-.198.426-.232l8.21-7.86c.003-1.201.478-2.354 1.334-3.214l.006-.006.045-.045c.903-.878 2.104-1.344 3.374-1.29l6.447-6.172c-.13-1.341.335-2.677 1.29-3.65l.003-.002.002-.003.009-.008c0-.002.002-.002.002-.003l.002-.002h.001c0-.002.003-.003.003-.004l.002-.002.003-.004c.864-.864 2.013-1.34 3.235-1.34.214 0 .428.015.64.045l6.496-6.218c-.13-1.193.268-2.377 1.11-3.255l.047-.048.002-.002.003-.003.002-.003.002-.001c0-.002.003-.004.003-.004l.04-.039c.764-.745 1.77-1.154 2.84-1.154.205 0 .41.015.612.046L75.51 1c.863-.827 1.66-1 2.175-1 .824 0 1.529.45 1.838 1.175.394.922.082 2.045-.835 3.003L73.411 9.69c.19 1.26-.222 2.555-1.13 3.474l-.001.002-.002.002-.003.003-.002.002-.003.003-.001.002-.005.004c-.872.872-2.088 1.299-3.315 1.17l-3.155 3.295c.135-.092.298-.146.474-.146.465 0 .842.377.842.842 0 .465-.377.842-.842.842-.465 0-.842-.377-.842-.842 0-.163.046-.315.126-.444l-2.82 2.947c.199 1.389-.243 2.778-1.226 3.804l-.053.054v.001l-.003.003-.002.002-.003.003-.002.003-.002.002-.005.005c-.969.968-2.312 1.448-3.677 1.318l-6.17 6.446c.051 1.238-.394 2.43-1.255 3.336-.045.06-.098.112-.156.157-.852.815-1.965 1.264-3.147 1.268l-8.375 8.748c.37 1.777-.032 3.66-1.114 5.124l-.004.005-.002.003v.002c-.167.223-.349.438-.543.64-.044.057-.095.108-.152.152-1.203 1.167-2.785 1.81-4.466 1.81-.35 0-.698-.029-1.042-.085l-1.178 1.23c-.064.104-.149.192-.249.26l-9.096 9.501c.275 1.971-.334 3.983-1.67 5.466l-.027.03-.002.002-.002.003-.005.005-.002.003-.004.005-.123.13c-.044.057-.095.108-.151.152-1.403 1.363-3.314 2.051-5.273 1.888l-4.891 7.01c-.143.204-.369.335-.617.357-.022.004-.046.005-.071.005zm-5.823-7.856l5.708 5.708 3.917-5.615c-.913-.335-1.743-.865-2.444-1.566-.701-.702-1.231-1.532-1.567-2.445L2.15 71.838zm11.053-1.258c.03.002.06.005.09.01.273.044.551.067.828.067 1.326 0 2.574-.504 3.523-1.42l.064-.063.002-.003.003-.003c.05-.05.1-.102.147-.154l.003-.003.001-.001.002-.002.003-.003.001-.002.002-.003c1.091-1.197 1.544-2.865 1.212-4.461-.005-.024-.009-.046-.011-.07-.21-.94-.681-1.797-1.366-2.482-.685-.686-1.543-1.157-2.482-1.366-.024-.003-.047-.007-.07-.012-.343-.071-.695-.108-1.046-.108-1.349 0-2.618.523-3.574 1.47 0 .001 0 .002-.002.002l-.001.003-.003.002-.004.004-.005.005-.002.002v.001l-.001.001-.002.003-.002.002-.003.002-.002.003-.01.01C9.363 63.16 8.843 64.8 9.104 66.403c.005.03.008.061.01.092.184 1.018.669 1.943 1.405 2.68.737.736 1.663 1.221 2.682 1.406zm3.72-11.156c.73.333 1.4.796 1.976 1.373.576.576 1.04 1.245 1.373 1.975l9.28-9.695c-.63-.309-1.208-.722-1.71-1.224s-.915-1.08-1.224-1.71l-9.694 9.28zm14.237-7.535c.032.004.063.01.095.018.37.09.751.136 1.133.136 1.263 0 2.448-.491 3.339-1.381l.002-.003c.003 0 .002-.002.003-.003.165-.165.317-.342.455-.528v-.001l.002-.002c.87-1.177 1.145-2.725.733-4.138l-.01-.04c-.224-.743-.633-1.427-1.186-1.979-.552-.552-1.234-.96-1.975-1.184l-.043-.012c-.432-.126-.88-.19-1.33-.19-1.236 0-2.398.47-3.284 1.326l-.061.06-.003.003-.002.002-.002.002-.003.003-.003.003-.001.002-.004.004c-1.162 1.174-1.62 2.839-1.227 4.453.008.032.014.063.018.095.213.802.636 1.536 1.227 2.127.592.592 1.325 1.014 2.127 1.227zm4.296-10.206c.534.292 1.028.66 1.462 1.095.433.433.802.927 1.095 1.462l7.094-7.41c-.488-.225-.936-.536-1.321-.92-.385-.385-.695-.834-.92-1.321l-7.41 7.094zm11.268-6.133c.014 0 .027.002.041.003.858.076 1.694-.229 2.3-.834l.003-.003v-.001c.637-.639.933-1.52.815-2.42-.003-.024-.006-.048-.007-.072-.095-.606-.374-1.156-.811-1.593-.437-.437-.987-.717-1.594-.811l-.07-.007c-.893-.119-1.79.185-2.424.818l-.002.002-.002.002c-.603.605-.905 1.442-.83 2.296l.002.039c.067.66.362 1.28.832 1.75.47.469 1.088.763 1.747.831zm2.393-6.946c.416.215.799.495 1.14.835.34.34.619.723.834 1.139l4.878-5.097c-.363-.204-.699-.457-.998-.757-.3-.3-.554-.636-.758-.999l-5.096 4.88zm8.467-4.291l.041.007c.947.195 1.942-.103 2.625-.786l.003-.003.003-.003.001-.002.002-.001c0-.001 0-.002.002-.003.713-.722.992-1.744.745-2.734l-.015-.073c-.132-.479-.388-.916-.742-1.27s-.792-.61-1.272-.743c-.023-.003-.047-.008-.07-.014-.978-.242-2.035.045-2.746.757l-.002.001v.002h-.002l-.002.003-.002.002-.003.004-.003.003c-.677.686-.965 1.662-.772 2.61l.007.043c.118.538.387 1.028.78 1.42.392.393.883.662 1.422.78zm3.03-6.714c.298.184.576.404.827.655.25.251.47.53.656.828l5.11-5.34c-.25-.159-.483-.345-.695-.558-.212-.212-.4-.446-.559-.696l-5.34 5.11zm8.169-4.985c.021.003.043.007.064.012.798.187 1.653-.054 2.232-.633l.002-.003.002-.002.002-.002v-.001l.002-.001v-.002l.007-.006c.596-.608.823-1.494.593-2.317l-.012-.048c-.113-.374-.319-.717-.597-.995-.278-.278-.621-.484-.994-.597l-.049-.012c-.82-.23-1.728.004-2.333.609H67.7v.001h-.001v.001l-.003.003-.002.002c-.58.585-.814 1.417-.626 2.225.005.021.01.043.012.066.107.407.321.779.621 1.079.3.3.673.514 1.08.62zm2.938-5.649c.196.137.38.29.55.46.169.17.322.354.459.55l4.747-4.96c.48-.502.599-.953.503-1.177-.043-.101-.14-.153-.29-.153-.136 0-.508.052-1.01.533L71.72 6.965z"/>
</svg>
