<svg xmlns="http://www.w3.org/2000/svg" width="128" height="128" viewBox="0 0 128 128">
    <g fill="none" fill-rule="evenodd">
        <path fill="#D3F6FB" d="M91 24L154.721 70.296 130.382 145.204 51.618 145.204 27.279 70.296z" opacity=".75" transform="translate(-24 -24) rotate(62 91 91)"/>
        <path fill="#E61A1A" d="M93 42l46 19-45 20-47-20 46-19zm-5 13c-5.523 0-10 2.686-10 6s4.477 6 10 6 10-2.686 10-6-4.477-6-10-6z" transform="translate(-24 -24)"/>
        <g>
            <path fill="#000" fill-rule="nonzero" d="M77.444 91.736c-.983-.25-1.978.352-2.222 1.333l-1.834 7.333c-.247.984.352 1.978 1.335 2.224.149.038.299.055.446.055.821 0 1.567-.556 1.776-1.388l1.833-7.333c.246-.983-.352-1.979-1.334-2.224zM55 55.014c.238 0 .477-.046.7-.139l20.167-8.345c.935-.387 1.379-1.46.992-2.395-.387-.937-1.463-1.377-2.396-.994L55 51.197 3.667 29.957v-.61c0-1.011-.822-1.833-1.834-1.833-1.011 0-1.833.822-1.833 1.833v1.834c0 .742.447 1.411 1.133 1.694l53.167 22c.223.093.462.14.7.14zM76.81 73.797c-.448-.908-1.544-1.282-2.455-.833-3.482 1.722-9.297 3.724-17.522 3.997V60.514c0-1.012-.82-1.833-1.833-1.833-1.012 0-1.833.821-1.833 1.833v16.43C30.403 76.22 23.057 62.429 22 60.134V47.68c0-1.012-.821-1.833-1.833-1.833s-1.833.821-1.833 1.833v12.833c0 .233.044.464.13.682.319.794 8.122 19.485 36.536 19.485 9.932 0 16.891-2.41 20.98-4.43.908-.449 1.28-1.547.83-2.454z" transform="translate(-24 -24) translate(33 37)"/>
            <path fill="#E61A1A" d="M84 34H87V83H84z" transform="translate(-24 -24) translate(33 37)"/>
            <path fill="#000" fill-rule="nonzero" d="M82.5 93.514c-1.014 0-1.833.822-1.833 1.833v5.5c0 1.012.82 1.834 1.833 1.834 1.014 0 1.833-.822 1.833-1.834v-5.5c0-1.011-.82-1.833-1.833-1.833zM108.167 27.514c-1.014 0-1.834.822-1.834 1.833v.605l-22 9.055v-3.313l24.534-10.153c.686-.282 1.133-.951 1.133-1.694 0-.742-.447-1.41-1.13-1.694L55.7.153c-.449-.185-.951-.185-1.4 0l-53.167 22C.447 22.438 0 23.105 0 23.847c0 .743.447 1.412 1.133 1.694l53.167 22c.223.094.462.14.7.14.239 0 .477-.046.7-.14l19.225-7.954c.937-.385 1.38-1.458.994-2.395-.387-.935-1.46-1.377-2.395-.992L55 43.864 6.627 23.847 55 3.831l48.373 20.016-21.049 8.71-20.161-7.527c.106-.381.17-.774.17-1.183 0-3.083-3.22-5.5-7.333-5.5-4.112 0-7.333 2.417-7.333 5.5 0 3.084 3.221 5.5 7.333 5.5 1.835 0 3.473-.5 4.745-1.307l20.922 7.812v45.166C78.538 81.78 77 83.794 77 86.181c0 3.032 2.468 5.5 5.5 5.5s5.5-2.468 5.5-5.5c0-2.387-1.538-4.402-3.667-5.163V70.612c5.264-3.972 7.15-9.263 7.233-9.498.066-.192.1-.396.1-.6V47.682c0-1.012-.819-1.833-1.833-1.833S88 46.67 88 47.681v12.495c-.317.777-1.419 3.173-3.667 5.538V42.973l24.532-10.096c.688-.283 1.135-.954 1.135-1.696v-1.833c0-1.012-.82-1.834-1.833-1.834zM55 25.681c-2.238 0-3.667-1.086-3.667-1.834s1.428-1.833 3.667-1.833 3.667 1.086 3.667 1.833c0 .749-1.429 1.834-3.667 1.834zm27.5 62.333c-1.012 0-1.833-.823-1.833-1.833s.821-1.833 1.833-1.833 1.833.823 1.833 1.833-.821 1.833-1.833 1.833zM89.778 93.069c-.245-.981-1.243-1.58-2.222-1.333-.982.245-1.58 1.24-1.334 2.224l1.833 7.333c.209.832.955 1.388 1.777 1.388.146 0 .296-.017.445-.055.983-.246 1.58-1.24 1.335-2.224l-1.834-7.333z" transform="translate(-24 -24) translate(33 37)"/>
        </g>
    </g>
</svg>
