<svg xmlns="http://www.w3.org/2000/svg" width="128" height="129" viewBox="0 0 128 129">
    <g fill="none" fill-rule="evenodd">
        <path stroke="#000" stroke-linecap="round" stroke-width="4" d="M44 85L85 44" transform="translate(0 1)"/>
        <g>
            <path fill="#E61A1A" d="M15.36 87.347c2.28 1.728 3.825 4.25 4.329 7.14l.929 5.335c-2.154-1.394-3.736-3.67-4.215-6.439zM45.432 2.713c3.684-3.617 9.454-3.617 13.138 0l6.615 6.495c.714.7 1.687 1.021 2.67.88l9.114-1.308c3.994-.574 7.737 1.437 9.581 4.818l-9.433 1.343c-3.494.498-6.953-.633-9.49-3.103l-7.954-7.744c-1.499-1.459-3.846-1.459-5.344 0l-7.955 7.744c-2.537 2.47-5.996 3.6-9.49 3.103l-10.958-1.56c-2.066-.294-3.964 1.095-4.324 3.162l-1.912 10.97c-.61 3.498-2.748 6.46-5.865 8.124l-9.777 5.22c-1.842.984-2.567 3.23-1.652 5.116L7.256 55.98c1.55 3.19 1.55 6.85 0 10.04l-4.665 9.605C-.059 72.8-.814 68.527.971 64.818l4.043-8.393c.436-.905.436-1.944 0-2.85L.972 45.184c-2.25-4.673-.467-10.243 4.06-12.68l8.13-4.379c.878-.472 1.48-1.313 1.651-2.305l1.59-9.201c.886-5.123 5.553-8.566 10.629-7.837l9.114 1.308c.983.14 1.956-.18 2.67-.88zm49.832 27.795l3.705 1.994c2.026 1.09 3.502 2.808 4.314 4.792l-3.106-1.657c-2.178-1.163-3.878-2.959-4.913-5.129z" transform="translate(0 1) translate(6 3)"/>
            <path fill="#000" fill-rule="nonzero" d="M104.517 62.291c-.433-.887-.433-1.905 0-2.792l4.02-8.224c2.239-4.58.466-10.037-4.037-12.426l-8.086-4.29c-.873-.463-1.47-1.287-1.641-2.26l-1.582-9.016c-.88-5.02-5.524-8.394-10.57-7.68l-9.064 1.282c-.978.138-1.945-.176-2.655-.863l-6.58-6.364c-3.663-3.544-9.402-3.545-13.065 0l-6.58 6.365c-.709.687-1.676 1-2.654.863l-9.064-1.282c-5.048-.715-9.69 2.66-10.57 7.68L20.807 32.3c-.17.972-.769 1.796-1.64 2.259l-8.087 4.29c-4.503 2.389-6.276 7.847-4.038 12.426l4.02 8.224c.434.888.434 1.905 0 2.793l-4.02 8.224c-2.238 4.579-.465 10.037 4.038 12.425l8.086 4.291c.872.463 1.47 1.286 1.641 2.259l1.582 9.016c.801 4.57 4.72 7.776 9.224 7.775.443 0 .894-.031 1.346-.095l9.064-1.282c.977-.139 1.945.176 2.655.863l6.58 6.364c1.831 1.773 4.181 2.658 6.532 2.658 2.35 0 4.701-.886 6.533-2.658l6.579-6.364c.71-.687 1.677-1 2.655-.863l9.064 1.282c5.048.714 9.69-2.66 10.57-7.68l1.582-9.016c.17-.973.769-1.796 1.64-2.259l8.087-4.29c4.503-2.39 6.276-7.847 4.038-12.427l-4.02-8.224zm-1.21 16.073l-8.443 4.5c-2.692 1.436-4.538 3.988-5.065 7.004l-1.651 9.457c-.311 1.782-1.951 2.979-3.734 2.726l-9.465-1.345c-3.018-.43-6.005.546-8.195 2.675l-6.87 6.676c-1.294 1.257-3.322 1.257-4.616 0l-6.87-6.676c-1.851-1.8-4.272-2.775-6.799-2.775-.462 0-.93.033-1.397.1l-9.464 1.344c-1.782.254-3.423-.943-3.734-2.725l-1.652-9.458c-.526-3.015-2.373-5.568-5.065-7.003l-8.444-4.5c-1.59-.848-2.217-2.785-1.426-4.41l4.198-8.626c1.338-2.751 1.338-5.906 0-8.656l-4.198-8.627c-.79-1.625-.164-3.562 1.426-4.41l8.444-4.5c2.692-1.435 4.539-3.988 5.065-7.003l1.651-9.458c.312-1.781 1.951-2.978 3.735-2.725l9.464 1.345c3.017.429 6.005-.547 8.195-2.675l6.87-6.676c1.295-1.258 3.322-1.258 4.616 0l6.87 6.676c2.19 2.128 5.178 3.104 8.196 2.675l9.464-1.345c1.782-.254 3.423.944 3.734 2.725l1.652 9.458c.526 3.016 2.373 5.568 5.065 7.003l8.444 4.5c1.59.848 2.217 2.785 1.426 4.41l-4.198 8.626c-1.338 2.75-1.338 5.906 0 8.656l4.198 8.627c.79 1.625.164 3.562-1.426 4.41z" transform="translate(0 1) translate(6 3)"/>
            <path fill="#E61A1A" d="M44.5 31C51.944 31 58 36.832 58 44s-6.056 13-13.5 13S31 51.168 31 44s6.056-13 13.5-13zm0 12c-3.308 0-6 2.692-6 6s2.692 6 6 6 6-2.692 6-6-2.692-6-6-6zM70.5 63C77.944 63 84 68.832 84 76c0 4.29-2.169 8.1-5.506 10.47C76.893 81.01 71.674 77 65.5 77c-2.99 0-5.755.94-7.994 2.53C57.176 78.407 57 77.223 57 76c0-7.168 6.056-13 13.5-13z" transform="translate(0 1) translate(6 3)"/>
            <path fill="#000" fill-rule="nonzero" d="M45.356 32.92c-6.285 0-11.398 5.112-11.398 11.397 0 6.284 5.113 11.398 11.398 11.398 6.285 0 11.398-5.114 11.398-11.398 0-6.285-5.113-11.398-11.398-11.398zm.102 19c-4.135 0-7.5-3.365-7.5-7.501 0-4.135 3.365-7.5 7.5-7.5 4.136 0 7.5 3.365 7.5 7.5 0 4.136-3.364 7.5-7.5 7.5zM70.223 66.076c-6.284 0-11.397 5.113-11.397 11.397 0 6.285 5.113 11.398 11.397 11.398 6.285 0 11.398-5.113 11.398-11.398 0-6.284-5.113-11.397-11.398-11.397zm.103 19c-4.136 0-7.5-3.365-7.5-7.5 0-4.136 3.364-7.5 7.5-7.5 4.135 0 7.5 3.364 7.5 7.5 0 4.135-3.365 7.5-7.5 7.5z" transform="translate(0 1) translate(6 3)"/>
        </g>
    </g>
</svg>
