<svg xmlns="http://www.w3.org/2000/svg" xmlns:xlink="http://www.w3.org/1999/xlink" width="128" height="129" viewBox="0 0 128 129">
    <defs>
        <path id="383tmkszga" d="M89 0l19 30-12.09 15H53c-1.054 0-1.918.816-1.995 1.85L51 47v30c0 1.105.895 2 2 2h15.507L54 97 0 30 19 0h70z"/>
    </defs>
    <g fill="none" fill-rule="evenodd">
        <path fill="#E61A1A" d="M60 118L4 46 18 23 94 23 109 46 98 61 63 61 62 95 77 95z" transform="translate(0 1)"/>
        <g transform="translate(0 1) translate(10 16)">
            <mask id="m40heazihb" fill="#fff">
                <use xlink:href="#383tmkszga"/>
            </mask>
            <path fill-rule="nonzero" stroke="#000" stroke-width="3" d="M104.87 31.141L54 94.433 3.13 31.141h101.74zM88.55 1.5l16.736 26.641H2.714L19.45 1.5h69.1z" mask="url(#m40heazihb)"/>
            <path fill-rule="nonzero" stroke="#000" stroke-width="3" d="M87.03 1.5l-9.727 26.641H30.697L20.97 1.5h66.06z" mask="url(#m40heazihb)"/>
            <path fill-rule="nonzero" stroke="#000" stroke-width="3" d="M54 2.367l21.108 25.774H32.892L54 2.367zM76.138 31.141L54 92.413 31.862 31.141h44.276z" mask="url(#m40heazihb)"/>
        </g>
        <path fill="#000" d="M113 64c2.21 0 4 1.79 4 4v20c0 2.21-1.79 4-4 4H68c-2.21 0-4-1.79-4-4V68c0-2.21 1.79-4 4-4h45zm-1 3H69c-1.105 0-2 .895-2 2v18c0 1.105.895 2 2 2h43c1.105 0 2-.895 2-2V69c0-1.105-.895-2-2-2z" transform="translate(0 1)"/>
        <path fill="#000" d="M77.475 85c1.422 0 2.531-.354 3.329-1.062C81.6 83.23 82 82.261 82 81.032c0-.888-.213-1.638-.638-2.25-.425-.611-1.212-1.221-2.359-1.83-.867-.46-1.417-.778-1.65-.955-.232-.177-.4-.36-.507-.55-.107-.189-.16-.41-.16-.665 0-.41.132-.742.395-.997s.64-.382 1.133-.382c.414 0 .835.06 1.263.177.429.118.97.326 1.625.624l.84-2.245c-.633-.304-1.239-.54-1.818-.708-.58-.167-1.188-.251-1.826-.251-1.298 0-2.315.345-3.051 1.034-.736.69-1.104 1.636-1.104 2.84 0 .64.112 1.2.335 1.678.224.478.524.897.899 1.257.375.36.937.736 1.687 1.127.8.422 1.33.73 1.59.922.261.193.458.393.593.601.134.208.201.446.201.713 0 .478-.152.838-.457 1.08-.305.242-.743.363-1.314.363-.476 0-1-.083-1.574-.251-.574-.168-1.275-.456-2.103-.866v2.682c1.007.547 2.166.82 3.475.82zm14.57 0V73.47H96V71H85v2.47h3.956V85h3.088zM107 85v-2.451h-5.254V71H99v14h8z" transform="translate(0 1)"/>
    </g>
</svg>
