<svg xmlns="http://www.w3.org/2000/svg" width="128" height="128" viewBox="0 0 128 128">
    <g fill="none" fill-rule="evenodd">
        <path fill="#D3F6FB" d="M91 24L154.721 70.296 130.382 145.204 51.618 145.204 27.279 70.296z" opacity=".75" transform="translate(-24 -24) rotate(62 91 91)"/>
        <path fill="#E61A1A" d="M67 125L75 128 82 121 87 121 87 150 67 142z" transform="translate(-24 -24) matrix(-1 0 0 1 154 0)"/>
        <path fill="#000" d="M70 125.833l1.082.01L73 127.725V139l13.611-6.079L101 139v-9.316l3-2.941V144l-17.472-7L70 144v-18.167z" transform="translate(-24 -24)"/>
        <path fill="#E61A1A" d="M80.46 116.112l-5.146 3.163 3.66 5.053 7.427-4.565-5.94-3.651zm35.965-60.335l-1.367 8.557 8.067 5.844-5.217 8.486 5.217 8.487-8.067 5.844 1.572 9.836-9.69 2.313-2.312 9.69-9.837-1.573-5.19 7.166 6.346 3.901 5.844-8.067 9.837 1.572 2.312-9.69 9.69-2.312-1.572-9.836 8.067-5.844-5.217-8.487 5.217-8.486-8.067-5.844 1.572-9.837-7.205-1.72zM66.13 113.261l-3.783.605.947 3.967 5.511-.881-2.675-3.69zm-14.633-8.711l-.205 1.281 3.026.722-.337-1.41-2.484-.593zm60.131-59.055l-6.052.967 1.364 5.723 6.665 1.589-1.977-8.279zM95.948 39l-3.34 2.053 2.183 3.014 4.327-.691L95.948 39zm-16.974 0l-.652.901 2.139 1.316 1.06-.652L78.974 39z" transform="translate(-24 -24)"/>
        <path fill="#000" d="M97.56 33.942l7.358 7.214 10.305.102 4.038 9.481 9.481 4.038.102 10.305 7.214 7.359L132.21 82l3.85 9.56-7.215 7.358-.102 10.305-9.481 4.038-4.038 9.481-10.305.102-7.359 7.214L88 126.21l-9.56 3.85-7.358-7.215-10.305-.102-4.038-9.481-9.481-4.038-.102-10.305-7.214-7.359L43.79 82l-3.85-9.56 7.215-7.358.102-10.305 9.481-4.038 4.038-9.481 10.305-.102 7.359-7.214L88 37.79l9.56-3.85zm-.78 4.177L88 41.654l-8.78-3.535-6.757 6.626-9.464.093-3.708 8.708-8.707 3.708-.094 9.464-6.625 6.758 3.535 8.779-3.535 8.779 6.625 6.758.094 9.463 8.707 3.708L63 119.671l9.464.093 6.758 6.626L88 122.855l8.78 3.535 6.757-6.626 9.464-.093 3.708-8.708 8.707-3.708.094-9.463 6.625-6.758-3.535-8.78 3.535-8.778-6.625-6.758-.094-9.464-8.707-3.708L113 44.838l-9.464-.093-6.758-6.626z" transform="translate(-24 -24)"/>
        <path fill="#000" fill-rule="nonzero" d="M99 94v3H77v-3h22zM87.96 68c1.731 0 3.14 1.473 3.14 3.285 0 .708-.216 1.364-.581 1.901-.22.323-.494.604-.808.824-.311.22-.663.384-1.04.476l2.154 3.22.64.957.081.122.56.838 2.084 3.114 2.883-1.486.877-.45.124-.065 1.002-.516 2.232-1.15c-.215-.314-.38-.67-.478-1.053-.071-.273-.109-.561-.109-.858 0-.132.008-.263.022-.39.185-1.63 1.512-2.896 3.118-2.896 1.73 0 3.139 1.474 3.139 3.286 0 1.741-1.303 3.171-2.941 3.278-.066.005-.132.007-.198.007-.326 0-.64-.052-.936-.149-.365-.12-.701-.306-.996-.548l-3.428 10.088L98.106 91H77.79l-.395-1.165-3.498-10.293c-.306.217-.651.38-1.022.473-.236.06-.483.092-.737.092-.143 0-.283-.01-.421-.03C70.185 79.861 69 78.483 69 76.821c0-1.812 1.409-3.286 3.14-3.286s3.139 1.474 3.139 3.286c0 .425-.077.826-.215 1.195-.138.369-.338.706-.587.996l2.43 1.252 1.001.515.08.04.92.476 2.8 1.442 2.112-3.159.504-.753.137-.206.64-.957 2.129-3.181c-.377-.094-.727-.26-1.037-.482-.313-.223-.585-.505-.803-.83-.359-.533-.57-1.183-.57-1.884 0-1.812 1.41-3.285 3.14-3.285z" transform="translate(-24 -24)"/>
        <path fill="#E61A1A" d="M79.431 75L78 78.521 78.924 78.98 79.849 79.44 80.978 80 81.816 78.791 82.408 77.938 83 77.085zM96.6 75L93 77.124 93.586 77.977 94.172 78.831 94.974 80 96.17 79.4 97.085 78.941 98 78.481z" transform="translate(-24 -24)"/>
    </g>
</svg>
