<svg xmlns="http://www.w3.org/2000/svg" width="128" height="129" viewBox="0 0 128 129">
    <g fill="none" fill-rule="evenodd" transform="translate(0 1)">
        <rect width="69" height="6" x="1" y="87" fill="#E61A1A" rx="1"/>
        <g>
            <path fill="#000" fill-rule="nonzero" d="M43 108h-7v-4h7v4zm-3-16V80h12V68H16v16H4v4h12v16h16v4H12V92H0V80h12V48h12v-4H12V24h44v20h-4V28H16v12h12v12H16v12h36V48h4v16h16v12h4V64h20v28h-4.001L92 68H80v12H68V68H56v16H44v4h12l-.001 4H40z" transform="translate(9 3)"/>
            <path fill="#E61A1A" d="M59 0L98 0 98 38 84 38 84 58 80 58 80 44 59 44z" transform="translate(9 3)"/>
            <path fill="#000" d="M106 96c1.105 0 2 .895 2 2v15c0 1.105-.895 2-2 2H49c-1.105 0-2-.895-2-2V98c0-1.105.895-2 2-2h57zm-2 3H51c-.552 0-1 .448-1 1v11c0 .552.448 1 1 1h53c.552 0 1-.448 1-1v-11c0-.552-.448-1-1-1z" transform="translate(9 3)"/>
            <text fill="#000" font-family="Roboto-Bold, Roboto" font-size="10" font-weight="bold" transform="translate(9 3)">
                <tspan x="53" y="109">GE SMART</tspan>
            </text>
            <path fill="#000" fill-rule="nonzero" d="M106 22L106 2 62 2 62 45.946 78 46 78.091 58 90 58 90 46 106 46 106 26 102 26 102 42 86 42 86 54 82 54 82 42 66 42 66 6 102 6 102 22z" transform="translate(9 3)"/>
            <path fill="#000" fill-rule="nonzero" d="M78 22L82 22 82 26 78 26zM86 22L90 22 90 26 86 26zM94 22L98 22 98 26 94 26z" transform="translate(9 3)"/>
        </g>
    </g>
</svg>
