<svg xmlns="http://www.w3.org/2000/svg" width="128" height="128" viewBox="0 0 128 128">
    <g fill="none" fill-rule="evenodd">
        <path fill="#D3F6FB" d="M91 24L154.721 70.296 130.382 145.204 51.618 145.204 27.279 70.296z" opacity=".75" transform="translate(-24 -24) rotate(62 91 91)"/>
        <path fill="#E61A1A" d="M50 41H92V65H50z" transform="translate(-24 -24)"/>
        <path fill="#000" d="M96 35l10 10v34.544c-1.016.187-2.017.42-3 .698V48h-7c-1.657 0-3-1.343-3-3v-7H62c-1.657 0-3 1.343-3 3v2h29c1.105 0 2 .895 2 2v16c0 1.105-.895 2-2 2H59v30c0 1.598 1.249 2.904 2.824 2.995L62 96h21.131c-.54.971-1.03 1.972-1.472 3H62c-3.314 0-6-2.686-6-6V63h-2c-1.105 0-2-.895-2-2V45c0-1.105.895-2 2-2h2v-2c0-3.314 2.686-6 6-6h34zM80.514 68.12c.302-.16.67-.16.972 0l9 4.792c.317.17.514.49.514.838v11.5c0 .348-.197.669-.514.838l-9 4.791c-.302.161-.67.161-.972 0l-9-4.791c-.317-.17-.514-.49-.514-.838v-11.5c0-.348.197-.669.514-.838zM73 76v8.569L80 88v-8.569L73 76zm16 0l-7 3.43V88l7-3.43V76zm-8-6l-8 4 8 4 8-4-8-4zm6-25H55c-.552 0-1 .448-1 1v14c0 .552.448 1 1 1h32c.552 0 1-.448 1-1V46c0-.552-.448-1-1-1zm-24.776 3c.478 0 .934.06 1.369.18.434.12.889.288 1.363.505l-.63 1.604-.238-.101c-.386-.16-.712-.275-.98-.345-.321-.084-.637-.126-.947-.126-.37 0-.653.09-.85.272-.198.182-.296.42-.296.712 0 .182.04.34.12.476.08.135.206.266.38.393.174.126.587.353 1.237.681.86.435 1.45.871 1.77 1.308.319.437.478.972.478 1.607 0 .878-.3 1.57-.897 2.076-.598.505-1.43.758-2.496.758-.983 0-1.851-.195-2.607-.585v-1.917l.26.12c.51.23.948.396 1.317.5.43.119.824.179 1.18.179.429 0 .757-.087.986-.26.229-.173.343-.43.343-.772 0-.19-.05-.36-.151-.509-.1-.148-.249-.291-.444-.429-.195-.137-.593-.357-1.193-.658-.562-.28-.984-.548-1.265-.805-.282-.258-.506-.557-.674-.899-.168-.341-.252-.74-.252-1.197 0-.86.276-1.537.828-2.03.552-.492 1.315-.738 2.289-.738zM75 48v1.765h-2.877V58h-2.246v-8.235H67V48h8zm4.06 0v8.249H83V58h-6V48h2.06z" transform="translate(-24 -24)"/>
        <path fill="#E61A1A" d="M136 115c0 14.912-12.088 27-27 27s-27-12.088-27-27 12.088-27 27-27c14.904.017 26.983 12.096 27 27z" transform="translate(-24 -24)"/>
        <path fill="#000" fill-rule="nonzero" d="M112 82c16.56.019 29.981 13.44 30 30 0 16.568-13.432 30-30 30-16.568 0-30-13.432-30-30 0-16.568 13.432-30 30-30zm0 3.153c-14.827 0-26.847 12.02-26.847 26.847 0 14.827 12.02 26.847 26.847 26.847 14.827 0 26.847-12.02 26.847-26.847-.016-14.82-12.027-26.83-26.847-26.847z" transform="translate(-24 -24)"/>
        <path fill-rule="nonzero" stroke="#000" stroke-linecap="round" stroke-linejoin="round" stroke-width="4" d="M102 112L109 119 122 106" transform="translate(-24 -24)"/>
    </g>
</svg>
