<svg xmlns="http://www.w3.org/2000/svg" xmlns:xlink="http://www.w3.org/1999/xlink" width="128" height="128" viewBox="0 0 128 128">
    <defs>
        <path id="prefix__a" d="M89 0l19 30-12.09 15H53c-1.054 0-1.918.816-1.995 1.85L51 47v30c0 1.105.895 2 2 2h15.507L54 97 0 30 19 0h70z"/>
    </defs>
    <g fill="none" fill-rule="evenodd">
        <path fill="#D3F6FB" d="M91 24L154.721 70.296 130.382 145.204 51.618 145.204 27.279 70.296z" opacity=".75" transform="translate(-24 -24) rotate(62 91 91)"/>
        <path fill="#E61A1A" d="M84 142L28 70 42 47 118 47 133 70 122 85 87 85 86 119 101 119z" transform="translate(-24 -24)"/>
        <g transform="translate(-24 -24) translate(34 40)">
            <mask id="prefix__b" fill="#fff">
                <use xlink:href="#prefix__a"/>
            </mask>
            <path fill-rule="nonzero" stroke="#000" stroke-width="3" d="M104.87 31.141H3.13L54 94.433l50.87-63.292zM88.55 1.5h-69.1L2.714 28.141h102.572L88.55 1.5z" mask="url(#prefix__b)"/>
            <path fill-rule="nonzero" stroke="#000" stroke-width="3" d="M87.03 1.5H20.97l9.727 26.641h46.606L87.03 1.5z" mask="url(#prefix__b)"/>
            <path fill-rule="nonzero" stroke="#000" stroke-width="3" d="M54 2.367L32.892 28.141h42.216L54 2.367zM76.138 31.141H31.862L54 92.413l22.138-61.272z" mask="url(#prefix__b)"/>
        </g>
        <path fill="#000" d="M137 88c2.21 0 4 1.79 4 4v20c0 2.21-1.79 4-4 4H92c-2.21 0-4-1.79-4-4V92c0-2.21 1.79-4 4-4h45zm-1 3H93c-1.105 0-2 .895-2 2v18c0 1.105.895 2 2 2h43c1.105 0 2-.895 2-2V93c0-1.105-.895-2-2-2z" transform="translate(-24 -24)"/>
        <path fill="#000" d="M101.475 109c1.422 0 2.531-.354 3.329-1.062.797-.708 1.196-1.677 1.196-2.906 0-.888-.213-1.638-.638-2.25-.425-.611-1.212-1.221-2.359-1.83-.867-.46-1.417-.778-1.65-.955-.232-.177-.4-.36-.507-.55-.107-.189-.16-.41-.16-.665 0-.41.132-.742.395-.997s.64-.382 1.133-.382c.414 0 .835.06 1.263.177.429.118.97.326 1.625.624l.84-2.245c-.633-.304-1.239-.54-1.818-.708-.58-.167-1.188-.251-1.826-.251-1.298 0-2.315.345-3.051 1.034-.736.69-1.104 1.636-1.104 2.84 0 .64.112 1.2.335 1.678.224.478.524.897.899 1.257.375.36.937.736 1.687 1.127.8.422 1.33.73 1.59.922.261.193.458.393.593.601.134.208.201.446.201.713 0 .478-.152.838-.457 1.08-.305.242-.743.363-1.314.363-.476 0-1-.083-1.574-.251-.574-.168-1.275-.456-2.103-.866v2.682c1.007.547 2.166.82 3.475.82zm14.57 0V97.47H120V95h-11v2.47h3.956V109h3.088zM131 109v-2.451h-5.254V95H123v14h8z" transform="translate(-24 -24)"/>
    </g>
</svg>
