<svg xmlns="http://www.w3.org/2000/svg" width="128" height="128" viewBox="0 0 128 128">
    <g fill="none" fill-rule="evenodd">
        <path fill="#D3F6FB" d="M91 24L154.721 70.296 130.382 145.204 51.618 145.204 27.279 70.296z" opacity=".75" transform="translate(-24 -24) rotate(62 91 91)"/>
        <g fill="#000" fill-rule="nonzero">
            <path d="M77 0c5.523 0 10 4.477 10 10v36.213c-1.35-.716-2.683-1.454-3.999-2.213H83V10c0-3.314-2.686-6-6-6H10c-3.314 0-6 2.686-6 6v67c0 3.314 2.686 6 6 6l46.299.001c.385 1.395.828 2.728 1.318 4L10 87C4.477 87 0 82.523 0 77V10C0 4.477 4.477 0 10 0h67z" transform="translate(-24 -24) translate(34 34)"/>
            <path d="M44 69c-1.104 0-2-1.224-2-2.732V20.732c0-1.508.896-2.732 2-2.732s2 1.224 2 2.732v45.536C46 67.776 45.104 69 44 69z" transform="translate(-24 -24) translate(34 34)"/>
            <path d="M43.997 69c-.607 0-1.213-.238-1.674-.72l-12.63-13.089c-.924-.959-.924-2.513 0-3.472.926-.959 2.425-.959 3.351 0L44 63.074 54.956 51.72c.925-.959 2.425-.959 3.35 0 .925.959.925 2.513 0 3.472l-12.63 13.09c-.467.48-1.073.719-1.68.719z" transform="translate(-24 -24) translate(34 34)"/>
        </g>
        <path fill="#E61A1A" d="M135 109.58c0 11.369-4.958 18.91-9.118 23.234-4.934 5.13-9.996 7.125-10.882 7.186-.886-.06-5.948-2.056-10.882-7.186C99.958 128.49 95 120.95 95 109.58V98.953c7.02-2.148 13.587-5.089 20-8.953 6.27 3.766 13.132 6.837 20 8.952v10.627z" transform="translate(-24 -24)"/>
        <path fill="#000" d="M117 82c7.837 4.52 16.415 8.205 25 10.742v12.753c0 13.643-6.198 22.693-11.397 27.882-6.168 6.156-12.495 8.55-13.603 8.623-1.108-.073-7.435-2.467-13.603-8.623-5.2-5.19-11.397-14.239-11.397-27.882V92.744c8.774-2.578 16.984-6.107 25-10.744zm0 4c-6.733 4.019-13.63 7.077-21 9.311v11.052c0 11.823 5.206 19.666 9.574 24.164 5.18 5.335 10.495 7.41 11.426 7.473.93-.063 6.245-2.138 11.426-7.473 4.368-4.498 9.574-12.34 9.574-24.164V95.31c-7.211-2.2-14.417-5.393-21-9.31z" transform="translate(-24 -24)"/>
        <path stroke="#000" stroke-linecap="round" stroke-linejoin="round" stroke-width="4" d="M108 112L115 119 128 106" transform="translate(-24 -24)"/>
    </g>
</svg>
