<svg xmlns="http://www.w3.org/2000/svg" width="128" height="128" viewBox="0 0 128 128">
    <g fill="none" fill-rule="evenodd">
        <path fill="#D3F6FB" d="M91 24L154.721 70.296 130.382 145.204 51.618 145.204 27.279 70.296z" opacity=".75" transform="translate(-24 -24) rotate(62 91 91)"/>
        <g>
            <path fill="#000" fill-rule="nonzero" d="M9.783 42.456l-6.269-6.138C1.248 34.097 0 31.149 0 28.01V3.357C0 1.506 1.538 0 3.429 0c1.89 0 3.428 1.506 3.428 3.357v16.09C5.751 20.53 5.143 21.97 5.143 23.5c0 1.53.608 2.97 1.714 4.052l5.645 5.528 2.424-2.374-5.643-5.527c-.46-.45-.712-1.044-.712-1.679 0-.634.252-1.229.71-1.679l1.005-.983c.913-.898 2.511-.898 3.428 0l7.274 7.122C22.93 29.862 24 32.391 24 35.08V47H10.286v-3.357c0-.447-.18-.873-.503-1.187zM27 61H7V51h20v10z" transform="translate(-24 -24) translate(52 83)"/>
            <path fill="#E61A1A" d="M7 51L27 51 23.58 52.71 17 56z" transform="translate(-24 -24) translate(52 83)"/>
            <path fill="#000" fill-rule="nonzero" d="M66.217 42.456l6.269-6.138C74.752 34.097 76 31.149 76 28.01V3.357C76 1.506 74.462 0 72.571 0c-1.89 0-3.428 1.506-3.428 3.357v16.09c1.106 1.084 1.714 2.524 1.714 4.053 0 1.53-.608 2.97-1.714 4.052l-5.645 5.528-2.424-2.374 5.643-5.527c.46-.45.712-1.044.712-1.679 0-.634-.252-1.229-.71-1.679l-1.005-.983c-.913-.898-2.511-.898-3.428 0l-7.274 7.122C53.07 29.862 52 32.391 52 35.08V47h13.714v-3.357c0-.447.18-.873.503-1.187zM49 61h20V51H49v10z" transform="translate(-24 -24) translate(52 83)"/>
            <path fill="#E61A1A" d="M49 51L69 51 59 56z" transform="translate(-24 -24) translate(52 83)"/>
        </g>
        <path fill="#E61A1A" d="M59 40H101V64H59z" transform="translate(-24 -24)"/>
        <path fill="#000" d="M105 34l10 10v48c0 3.314-2.686 6-6 6H71c-3.314 0-6-2.686-6-6V62h-2c-1.105 0-2-.895-2-2V44c0-1.105.895-2 2-2h2v-2c0-3.314 2.686-6 6-6h34zm-3 3H71c-1.657 0-3 1.343-3 3v2h29c1.105 0 2 .895 2 2v16c0 1.105-.895 2-2 2H68v30c0 1.598 1.249 2.904 2.824 2.995L71 95h38c1.657 0 3-1.343 3-3V47h-7c-1.657 0-3-1.343-3-3v-7zM89.514 67.12c.302-.16.67-.16.972 0l9 4.792c.317.17.514.49.514.838v11.5c0 .348-.197.669-.514.838l-9 4.791c-.302.161-.67.161-.972 0l-9-4.791c-.317-.17-.514-.49-.514-.838v-11.5c0-.348.197-.669.514-.838zM82 75v8.569L89 87v-8.569L82 75zm16 0l-7 3.43V87l7-3.43V75zm-8-6l-8 4 8 4 8-4-8-4zm6-25H64c-.552 0-1 .448-1 1v14c0 .552.448 1 1 1h32c.552 0 1-.448 1-1V45c0-.552-.448-1-1-1zm-24.776 3c.478 0 .934.06 1.369.18.434.12.889.288 1.363.505l-.63 1.604-.238-.101c-.386-.16-.712-.275-.98-.345-.321-.084-.637-.126-.947-.126-.37 0-.653.09-.85.272-.198.182-.296.42-.296.712 0 .182.04.34.12.476.08.135.206.266.38.393.174.126.587.353 1.237.681.86.435 1.45.871 1.77 1.308.319.437.478.972.478 1.607 0 .878-.3 1.57-.897 2.076-.598.505-1.43.758-2.496.758-.983 0-1.851-.195-2.607-.585v-1.917l.26.12c.51.23.948.396 1.317.5.43.119.824.179 1.18.179.429 0 .757-.087.986-.26.229-.173.343-.43.343-.772 0-.19-.05-.36-.151-.509-.1-.148-.249-.291-.444-.429-.195-.137-.593-.357-1.193-.658-.562-.28-.984-.548-1.265-.805-.282-.258-.506-.557-.674-.899-.168-.341-.252-.74-.252-1.197 0-.86.276-1.537.828-2.03.552-.492 1.315-.738 2.289-.738zM84 47v1.765h-2.877V57h-2.246v-8.235H76V47h8zm4.06 0v8.249H92V57h-6V47h2.06z" transform="translate(-24 -24)"/>
    </g>
</svg>
