<svg xmlns="http://www.w3.org/2000/svg" xmlns:xlink="http://www.w3.org/1999/xlink" width="128" height="128" viewBox="0 0 128 128">
    <defs>
        <path id="prefix__a" d="M0 0H42V128H0z"/>
        <path id="prefix__c" d="M0 0H42V128H0z"/>
    </defs>
    <g fill="none" fill-rule="evenodd">
        <path fill="#D3F6FB" d="M91 24L154.721 70.296 130.382 145.204 51.618 145.204 27.279 70.296z" opacity=".75" transform="translate(-24 -24) rotate(62 91 91)"/>
        <g>
            <path fill="#E61A1A" d="M2 64H34V69H2zM24 8H28V59H24z" transform="translate(-24 -24) translate(77 58)"/>
            <path fill="#000" d="M52 0c2.21 0 4 1.79 4 4v67c0 2.21-1.79 4-4 4h-3c0-2.21-1.79-4-4-4H11c-2.21 0-4 1.79-4 4H4c-2.21 0-4-1.79-4-4V4c0-2.21 1.79-4 4-4h48zm-1 4H5c-1.105 0-2 .895-2 2v60c0 1.105.895 2 2 2h46c1.105 0 2-.895 2-2V6c0-1.105-.895-2-2-2zm2 54v2H3v-2h50zM26 15v31h-2V15h2zm6 0v31h-2V15h2zM15 8c.552 0 1 .448 1 1v2h37v2H16v3c0 .552-.448 1-1 1H9c-.552 0-1-.448-1-1v-3H3v-2h5V9c0-.552.448-1 1-1h6zm17-3v4h-2V7h-4v2h-2V5h8zM11 17h2v2h-2v-2zM7 50h2v2H7v-2zm4 12c1.105 0 2 .895 2 2s-.895 2-2 2-2-.895-2-2 .895-2 2-2zm41-14v2h-2v2h-2v-2h-9v2H17v-2H5v-2h47zm-28 6h8v4h-8v-4zm9 8v4H23v-4h10zm-3-8v4h-4v-4h4z" transform="translate(-24 -24) translate(77 58)"/>
        </g>
        <g transform="translate(-24 -24) translate(24 24)">
            <mask id="prefix__b" fill="#fff">
                <use xlink:href="#prefix__a"/>
            </mask>
            <rect width="34" height="14" x="12" y="94" fill="#E61A1A" mask="url(#prefix__b)" rx="2"/>
            <path fill="#000" d="M11 45h36c2.21 0 4 1.79 4 4v34c0 2.21-1.79 4-4 4H11c-2.21 0-4-1.79-4-4V49c0-2.21 1.79-4 4-4zM9 89h40c1.105 0 2 .895 2 2v16c0 1.105-.895 2-2 2H9c-1.105 0-2-.895-2-2V91c0-1.105.895-2 2-2zm2 3h36c.552 0 1 .448 1 1v12c0 .552-.448 1-1 1H11c-.552 0-1-.448-1-1V93c0-.552.448-1 1-1zm19 3h10c.552 0 1 .448 1 1v1c0 .552-.448 1-1 1H30c-.552 0-1-.448-1-1v-1c0-.552.448-1 1-1zm14.5 0c.828 0 1.5.672 1.5 1.5s-.672 1.5-1.5 1.5-1.5-.672-1.5-1.5.672-1.5 1.5-1.5zM10 49h38v34H10V49z" mask="url(#prefix__b)"/>
            <path fill="#000" d="M31 55c1.105 0 2 .895 2 2v4h3c.552 0 1 .448 1 1v1c0 .552-.448 1-1 1h-3v13h8l-2 4H19l-2-4h8V64h-3c-.552 0-1-.448-1-1v-1c0-.552.448-1 1-1h3v-4c0-1.105.895-2 2-2h4zm0 9h-4v13h4V64zm-1-7h-2c-.513 0-.936.386-.993.883L27 58v3h4v-3c0-.513-.386-.936-.883-.993L30 57z" mask="url(#prefix__b)"/>
        </g>
        <g transform="translate(-24 -24) translate(110 24)">
            <mask id="prefix__d" fill="#fff">
                <use xlink:href="#prefix__c"/>
            </mask>
            <path fill="#E61A1A" d="M9 78H22V98H9z" mask="url(#prefix__d)"/>
            <path fill="#000" d="M43 66c4.418 0 8 3.582 8 8v27c0 4.418-3.582 8-8 8H15c-4.418 0-8-3.582-8-8V74c0-4.418 3.582-8 8-8h28zm-1 3H16c-3.314 0-6 2.686-6 6v25c0 3.314 2.686 6 6 6h26c3.314 0 6-2.686 6-6V75c0-3.314-2.686-6-6-6zM14.5 81c.828 0 1.5.672 1.5 1.5v11c0 .828-.672 1.5-1.5 1.5s-1.5-.672-1.5-1.5v-11c0-.828.672-1.5 1.5-1.5zm9-10h11c.828 0 1.5.672 1.5 1.5s-.672 1.5-1.5 1.5h-11c-.828 0-1.5-.672-1.5-1.5s.672-1.5 1.5-1.5zM13 42h32c3.314 0 6 2.686 6 6v10c0 3.314-2.686 6-6 6H13c-3.314 0-6-2.686-6-6V48c0-3.314 2.686-6 6-6zm0 3h32c1.657 0 3 1.343 3 3v10c0 1.657-1.343 3-3 3H13c-1.657 0-3-1.343-3-3V48c0-1.657 1.343-3 3-3zm8 3h16v10H21V48z" mask="url(#prefix__d)"/>
        </g>
        <path stroke="#FFF" stroke-width="2" d="M67 31L67 148M110 31L110 148" transform="translate(-24 -24)"/>
    </g>
</svg>
