<svg xmlns="http://www.w3.org/2000/svg" width="128" height="129" viewBox="0 0 128 129">
    <g fill="none" fill-rule="evenodd">
        <path fill="#E61A1A" d="M43 101L51 104 58 97 63 97 63 126 43 118z" transform="translate(0 1) matrix(-1 0 0 1 106 0)"/>
        <path fill="#000" d="M46 101.833l1.082.01L49 103.725V115l13.611-6.079L77 115v-9.316l3-2.941V120l-17.472-7L46 120v-18.167z" transform="translate(0 1)"/>
        <path fill="#E61A1A" d="M56.46 92.112l-5.146 3.163 3.66 5.053 7.427-4.565-5.94-3.651zm35.965-60.335l-1.367 8.557 8.067 5.844-5.217 8.486 5.217 8.487-8.067 5.844 1.572 9.836-9.69 2.313-2.312 9.69-9.837-1.573-5.19 7.166 6.346 3.901 5.844-8.067 9.837 1.572 2.312-9.69 9.69-2.312-1.572-9.836 8.067-5.844-5.217-8.487 5.217-8.486-8.067-5.844 1.572-9.837-7.205-1.72zM42.13 89.261l-3.783.605.947 3.967 5.511-.881-2.675-3.69zM27.497 80.55l-.205 1.281 3.026.722-.337-1.41-2.484-.593zm60.131-59.055l-6.052.967 1.364 5.723 6.665 1.589-1.977-8.279zM71.948 15l-3.34 2.053 2.183 3.014 4.327-.691L71.948 15zm-16.974 0l-.652.901 2.139 1.316 1.06-.652L54.974 15z" transform="translate(0 1)"/>
        <path fill="#000" d="M73.56 9.942l7.358 7.214 10.305.102 4.038 9.481 9.481 4.038.102 10.305 7.214 7.359L108.21 58l3.85 9.56-7.215 7.358-.102 10.305-9.481 4.038-4.038 9.481-10.305.102-7.359 7.214L64 102.21l-9.56 3.85-7.358-7.215-10.305-.102-4.038-9.481-9.481-4.038-.102-10.305-7.214-7.359L19.79 58l-3.85-9.56 7.215-7.358.102-10.305 9.481-4.038 4.038-9.481 10.305-.102 7.359-7.214L64 13.79l9.56-3.85zm-.78 4.177L64 17.654l-8.78-3.535-6.757 6.626-9.464.093-3.708 8.708-8.707 3.708-.094 9.464-6.625 6.758 3.535 8.779-3.535 8.779 6.625 6.758.094 9.463 8.707 3.708L39 95.671l9.464.093 6.758 6.626L64 98.855l8.78 3.535 6.757-6.626 9.464-.093 3.708-8.708 8.707-3.708.094-9.463 6.625-6.758-3.535-8.78 3.535-8.778-6.625-6.758-.094-9.464-8.707-3.708L89 20.838l-9.464-.093-6.758-6.626z" transform="translate(0 1)"/>
        <path fill="#000" fill-rule="nonzero" d="M75 70v3H53v-3h22zM63.96 44c1.731 0 3.14 1.473 3.14 3.285 0 .708-.216 1.364-.581 1.901-.22.323-.494.604-.808.824-.311.22-.663.384-1.04.476l2.154 3.22.64.957.081.122.56.838 2.084 3.114 2.883-1.486.877-.45.124-.065 1.002-.516 2.232-1.15c-.215-.314-.38-.67-.478-1.053-.071-.273-.109-.561-.109-.858 0-.132.008-.263.022-.39.185-1.63 1.512-2.896 3.118-2.896 1.73 0 3.139 1.474 3.139 3.286 0 1.741-1.303 3.171-2.941 3.278-.066.005-.132.007-.198.007-.326 0-.64-.052-.936-.149-.365-.12-.701-.306-.996-.548l-3.428 10.088L74.106 67H53.79l-.395-1.165-3.498-10.293c-.306.217-.651.38-1.022.473-.236.06-.483.092-.737.092-.143 0-.283-.01-.421-.03C46.185 55.861 45 54.483 45 52.821c0-1.812 1.409-3.286 3.14-3.286s3.139 1.474 3.139 3.286c0 .425-.077.826-.215 1.195-.138.369-.338.706-.587.996l2.43 1.252 1.001.515.08.04.92.476 2.8 1.442 2.112-3.159.504-.753.137-.206.64-.957 2.129-3.181c-.377-.094-.727-.26-1.037-.482-.313-.223-.585-.505-.803-.83-.359-.533-.57-1.183-.57-1.884 0-1.812 1.41-3.285 3.14-3.285z" transform="translate(0 1)"/>
        <path fill="#E61A1A" d="M55.431 51L54 54.521 54.924 54.98 55.849 55.44 56.978 56 57.816 54.791 58.408 53.938 59 53.085zM72.6 51L69 53.124 69.586 53.977 70.172 54.831 70.974 56 72.17 55.4 73.085 54.941 74 54.481z" transform="translate(0 1)"/>
    </g>
</svg>
