<svg xmlns="http://www.w3.org/2000/svg" width="128" height="128" viewBox="0 0 128 128">
    <g fill="none" fill-rule="evenodd">
        <path fill="#D3F6FB" d="M91 24L154.721 70.296 130.382 145.204 51.618 145.204 27.279 70.296z" opacity=".75" transform="translate(-24 -24) rotate(62 91 91)"/>
        <g>
            <path fill="#000" fill-rule="nonzero" d="M3 30v35c0 2.21 1.79 4 4 4h52.86c.09 1.027.214 2.027.365 3.001L6 72c-3.314 0-6-2.686-6-6V6c0-3.314 2.686-6 6-6h96c3.314 0 6 2.686 6 6v41.394c-1.003-.373-2.003-.76-3-1.158V30H3zm0-15h102V7c0-2.21-1.79-4-4-4H7C4.79 3 3 4.79 3 7v8zm6.5 20h12c.828 0 1.5.672 1.5 1.5s-.672 1.5-1.5 1.5h-12c-.828 0-1.5-.672-1.5-1.5S8.672 35 9.5 35zM26 44c4.97 0 9 4.03 9 9s-4.03 9-9 9c-1.64 0-3.176-.438-4.5-1.204C20.177 61.56 18.64 62 17 62c-4.97 0-9-4.03-9-9s4.03-9 9-9c1.64 0 3.177.439 4.501 1.205C22.824 44.438 24.361 44 26 44zm-9 3c-3.314 0-6 2.686-6 6s2.686 6 6 6 6-2.686 6-6-2.686-6-6-6zm10.5-12c.828 0 1.5.672 1.5 1.5s-.672 1.5-1.5 1.5-1.5-.672-1.5-1.5.672-1.5 1.5-1.5z" transform="translate(-24 -24) translate(34 39)"/>
            <path fill="#E61A1A" d="M106 68.58c0 11.369-4.958 18.91-9.118 23.234C91.948 96.944 86.886 98.94 86 99c-.886-.06-5.948-2.056-10.882-7.186C70.958 87.49 66 79.95 66 68.58V57.953c7.02-2.148 13.587-5.089 20-8.953 6.27 3.766 13.132 6.837 20 8.952v10.627z" transform="translate(-24 -24) translate(34 39)"/>
            <path fill="#000" d="M88 42c7.837 4.52 16.415 8.205 25 10.742v12.753c0 13.643-6.198 22.693-11.397 27.882C95.435 99.533 89.108 101.927 88 102c-1.108-.073-7.435-2.467-13.603-8.623C69.197 88.187 63 79.138 63 65.495V52.744C71.774 50.166 79.984 46.637 88 42zm0 4c-6.733 4.019-13.63 7.077-21 9.311v11.052c0 11.823 5.206 19.666 9.574 24.164C81.754 95.862 87.069 97.937 88 98c.93-.063 6.245-2.138 11.426-7.473 4.368-4.498 9.574-12.34 9.574-24.164V55.31c-7.211-2.2-14.417-5.393-21-9.31z" transform="translate(-24 -24) translate(34 39)"/>
            <path stroke="#000" stroke-linecap="round" stroke-linejoin="round" stroke-width="4" d="M79 72L86 79 99 66" transform="translate(-24 -24) translate(34 39)"/>
        </g>
    </g>
</svg>
