<svg xmlns="http://www.w3.org/2000/svg" width="128" height="128" viewBox="0 0 128 128">
    <g fill="none" fill-rule="evenodd">
        <path fill="#D3F6FB" d="M91 24L154.721 70.296 130.382 145.204 51.618 145.204 27.279 70.296z" opacity=".75" transform="translate(-24 -24) rotate(62 91 91)"/>
        <g>
            <path fill="#E61A1A" d="M9 45c-.903.86-8.418 5.096-8.418 7.017L1 64h15V49l-7-4z" transform="translate(-24 -24) translate(35 62)"/>
            <path fill="#C7CFE2" fill-rule="nonzero" d="M29.988 48.97c.65.864 1.03 1.925 1.03 3.048V63.7h-6.763v-8.52c0-1.027.467-2 1.269-2.64l4.464-3.572z" transform="translate(-24 -24) translate(35 62)"/>
            <path fill="#E61A1A" d="M101.739 44.77l-8.158-2.33-5.072 6.043L89 64l16.418-.3V49.649c0-2.265-1.501-4.256-3.68-4.878z" transform="translate(-24 -24) translate(35 62)"/>
            <path fill-rule="nonzero" d="M88.509 40.028c-5.603 0-10.145-4.542-10.145-10.145 0-2.165.86-4.242 2.39-5.773l1.666-1.665c.65-.65 1.537-1.023 2.455-.994 5.405.17 10.19 1.328 12.805 3.883.64.625.974 1.5.974 2.394v2.155c0 5.603-4.542 10.145-10.145 10.145z" transform="translate(-24 -24) translate(35 62)"/>
            <path fill="#E61A1A" d="M53 43.41L47 49l-7-8-11.293 4.173c-2.673.972-4.452 3.512-4.452 6.356v12.172L53 64V43.41zM59 50L66 41 64 36 53 44z" transform="translate(-24 -24) translate(35 62)"/>
            <path d="M53 33.265c-9.339 0-16.909-7.57-16.909-16.909v-1.69l2.814-1.877c1.411-.94 2.259-2.524 2.259-4.22v-5.74S54.69-2.244 64.837 6.21v2.357c0 1.696.847 3.28 2.258 4.221l2.814 1.876v1.691c0 9.338-7.57 16.909-16.909 16.909z" transform="translate(-24 -24) translate(35 62)"/>
            <path fill="#000" fill-rule="nonzero" d="M92.87 24.533c.227.114.468.168.706.168.58 0 1.139-.32 1.416-.875.391-.782.074-1.732-.707-2.123-3.675-1.837-10.566-1.858-10.857-1.858-.874 0-1.582.708-1.582 1.582 0 .873.708 1.582 1.582 1.582 1.778 0 6.94.274 9.442 1.524zM98.652 51.984c-.874 0-1.582.709-1.582 1.582v10.15c0 .873.708 1.582 1.582 1.582.873 0 1.582-.709 1.582-1.583V53.566c0-.873-.709-1.582-1.582-1.582zM42.761 4.25c0-.054.036-.1.083-.107 2.039-.307 6.085-.782 10.278-.502 4.933.328 8.506 1.567 10.62 3.68.618.619 1.62.619 2.237 0 .618-.617.618-1.619 0-2.236C59.996-.9 47.477.245 42.372 1.015c-1.608.242-2.775 1.603-2.775 3.235v3.645c0 .873.708 1.582 1.582 1.582.874 0 1.582-.709 1.582-1.582V4.25z" transform="translate(-24 -24) translate(35 62)"/>
        </g>
        <g fill="#000" fill-rule="nonzero">
            <path d="M95.285 35.703c-3.675-1.837-10.566-1.858-10.857-1.858-.874 0-1.582.708-1.582 1.582 0 .873.708 1.582 1.582 1.582 1.778 0 6.94.274 9.442 1.524.227.114.468.168.706.168.58 0 1.139-.32 1.416-.875.391-.782.074-1.732-.707-2.123z" transform="translate(-24 -24) translate(34 48)"/>
            <path d="M103.172 58.227l-6.534-1.866c-.282-.081-.479-.342-.479-.636v-2.18c.532-.369 1.039-.78 1.513-1.24 2.297-2.23 3.562-5.22 3.562-8.42v-3.01l.632-1.263c.693-1.387 1.06-2.94 1.06-4.49v-8.153c0-.874-.709-1.582-1.583-1.582H86.12c-5.535 0-10.04 4.504-10.04 10.04v.094c0 1.29.305 2.58.882 3.733l.81 1.62v2.585c0 4.095 2.018 7.77 5.075 9.98v2.286c0 .353 0 .498-1.306.872l-3.188.91-9.223-3.353c.034-.435-.113-.878-.43-1.211l-2.948-3.096v-5.198c.312-.256.619-.52.917-.799 3.717-3.485 5.85-8.404 5.85-13.498v-4.15c1.122-2.444 1.691-5.029 1.691-7.691V1.596c0-.874-.708-1.582-1.582-1.582H48.945c-8.334 0-15.114 6.78-15.114 15.114v3.383c0 2.663.569 5.248 1.692 7.69v3.572c0 5.914 2.63 11.242 6.766 14.754v5.32l-2.947 3.096c-.318.334-.465.776-.431 1.211l-9.734 3.54c-.706.256-1.36.604-1.956 1.024l-1.528-.764c4.55-1.98 5.99-4.766 6.06-4.904.223-.445.223-.97 0-1.415-1.14-2.281-1.279-6.462-1.39-9.821-.037-1.119-.072-2.175-.138-3.116-.54-7.589-6.308-13.311-13.42-13.311-7.11 0-12.879 5.722-13.418 13.31-.067.942-.102 1.998-.139 3.117-.11 3.36-.25 7.54-1.39 9.82-.222.446-.222.97 0 1.416.07.138 1.508 2.918 6.067 4.9L3.68 60.074C1.41 61.21 0 63.49 0 66.028v11.687c0 .874.708 1.583 1.582 1.583.874 0 1.582-.709 1.582-1.583V66.028c0-1.332.74-2.529 1.93-3.124l5.287-2.644 1.84 1.748c1.285 1.222 2.935 1.833 4.585 1.833s3.3-.611 4.585-1.833l1.84-1.747 1.723.862c-.812 1.298-1.272 2.821-1.272 4.417v12.176c0 .874.708 1.582 1.582 1.582.873 0 1.582-.708 1.582-1.582V65.54c0-2.172 1.37-4.13 3.412-4.872l10.263-3.732 4.272 6.408c.546.82 1.421 1.345 2.4 1.442.11.01.219.016.327.016.865 0 1.693-.34 2.311-.959l2.607-2.606v16.48c0 .873.708 1.581 1.582 1.581.874 0 1.582-.708 1.582-1.582v-16.48l2.606 2.607c.619.62 1.447.96 2.311.96.109 0 .218-.006.327-.017.98-.097 1.855-.622 2.4-1.441l4.273-6.409 10.263 3.732c2.04.742 3.412 2.7 3.412 4.872v12.176c0 .874.708 1.582 1.582 1.582.874 0 1.582-.708 1.582-1.582V65.54c0-2.2-.874-4.263-2.34-5.788l.391-.112c.394-.113.932-.267 1.472-.532l4.04 4.04v14.568c0 .874.708 1.582 1.581 1.582.874 0 1.583-.708 1.583-1.582V63.148l4.01-4.011c.214.108.438.2.674.267l6.534 1.867c1.491.426 2.533 1.807 2.533 3.358v13.087c0 .874.708 1.582 1.582 1.582.874 0 1.582-.708 1.582-1.582V64.63c0-2.957-1.985-5.59-4.828-6.402zM10.15 55.433c-2.959-1.065-4.443-2.484-5.077-3.26.432-1.129.712-2.422.902-3.788.872 2.092 2.333 3.878 4.175 5.152v1.896zm9.063 4.282c-1.35 1.282-3.463 1.282-4.812 0l-1.471-1.399c.248-.465.385-.992.385-1.544v-1.687c1.103.345 2.276.531 3.492.531 1.215 0 2.387-.187 3.493-.53v1.685c0 .553.136 1.08.384 1.546l-1.47 1.398zm-2.405-7.263c-4.724 0-8.568-3.843-8.568-8.567 0-.874-.708-1.582-1.582-1.582-.088 0-.175.009-.26.023l.014-.407c.036-1.088.07-2.115.132-2.997.202-2.842 1.338-5.462 3.199-7.376 1.877-1.931 4.386-2.995 7.064-2.995 2.679 0 5.187 1.064 7.065 2.995 1.86 1.914 2.996 4.534 3.198 7.376.063.881.097 1.909.133 2.996l.01.283c-1.722-2.652-4.38-4.607-7.815-5.71-3.173-1.02-5.902-.957-6.017-.954-.415.012-.808.185-1.095.484L9.43 38.98c-.606.629-.588 1.63.04 2.237.63.606 1.631.588 2.238-.04l2.375-2.464c2.045.1 8.626.865 11.185 6.5-.644 4.154-4.213 7.238-8.461 7.238zm6.655 2.986v-1.886c1.841-1.268 3.304-3.05 4.177-5.158.19 1.363.47 2.653.901 3.78-.63.768-2.121 2.2-5.078 3.264zm15.225-25.665v-3.925c0-.238-.054-.474-.158-.688-1.018-2.108-1.534-4.345-1.534-6.649v-3.383c0-6.589 5.361-11.95 11.95-11.95h22.1v15.334c0 2.303-.516 4.54-1.534 6.648-.104.215-.157.45-.157.688v4.504c0 4.285-1.723 8.259-4.85 11.19-.39.366-.796.709-1.215 1.028l-.027.02c-2.93 2.225-6.518 3.306-10.266 3.063-8.024-.52-14.31-7.495-14.31-15.88zm8.907 31.833c-.01.01-.036.036-.088.031-.051-.005-.072-.035-.08-.048l-4.92-7.38 1.583-1.664 7.464 5.102-3.959 3.959zM54.02 55.5l-8.567-5.856v-2.953c2.217 1.199 4.699 1.948 7.339 2.119.417.027.831.04 1.244.04 3.025 0 5.937-.723 8.551-2.095v2.89L54.02 55.5zm6.594 6.09c-.008.012-.029.042-.08.047-.052.007-.077-.02-.088-.031l-3.959-3.959 7.464-5.102 1.584 1.664-4.92 7.38zm28.888-1.336l-3.59-3.59c.063-.284.098-.596.098-.94v-.667c.996.327 2.046.521 3.133.554.122.003.243.005.364.005 1.2 0 2.373-.181 3.488-.528v.637c0 .316.04.625.114.922l-3.607 3.607zm5.966-10.22c-1.676 1.627-3.891 2.486-6.23 2.414-4.578-.137-8.303-4.17-8.303-8.989v-2.957c0-.246-.057-.488-.167-.708l-.977-1.954c-.358-.716-.547-1.518-.547-2.319v-.094c0-3.791 3.084-6.876 6.875-6.876h13.642v6.57c0 1.063-.25 2.126-.725 3.076l-.799 1.597c-.11.22-.167.462-.167.708v3.383c0 2.337-.924 4.52-2.602 6.149z" transform="translate(-24 -24) translate(34 48)"/>
            <path d="M99.652 65.984c-.874 0-1.582.709-1.582 1.582v10.15c0 .873.708 1.582 1.582 1.582.873 0 1.582-.709 1.582-1.583V67.566c0-.873-.709-1.582-1.582-1.582zM8.348 68.075c-.873 0-1.582.709-1.582 1.582v8.058c0 .874.709 1.583 1.582 1.583.874 0 1.582-.709 1.582-1.583v-8.058c0-.873-.708-1.582-1.582-1.582zM66.98 19.085c-5.984-5.984-18.503-4.84-23.608-4.07-1.608.242-2.775 1.603-2.775 3.235v3.645c0 .873.708 1.582 1.582 1.582.874 0 1.582-.709 1.582-1.582V18.25c0-.054.036-.1.083-.107 2.039-.307 6.085-.782 10.278-.502 4.933.328 8.506 1.567 10.62 3.68.618.619 1.62.619 2.237 0 .618-.617.618-1.619 0-2.236zM35.413 69.367c-.874 0-1.582.709-1.582 1.582v6.767c0 .873.708 1.582 1.582 1.582.874 0 1.582-.709 1.582-1.582v-6.767c0-.873-.708-1.582-1.582-1.582zM72.627 69.367c-.874 0-1.582.709-1.582 1.582v6.767c0 .873.708 1.582 1.582 1.582.874 0 1.582-.709 1.582-1.582v-6.767c0-.873-.708-1.582-1.582-1.582z" transform="translate(-24 -24) translate(34 48)"/>
        </g>
    </g>
</svg>
