<?xml version="1.0" standalone="no"?>
<!DOCTYPE svg PUBLIC "-//W3C//DTD SVG 20010904//EN"
 "http://www.w3.org/TR/2001/REC-SVG-20010904/DTD/svg10.dtd">
<svg version="1.0" xmlns="http://www.w3.org/2000/svg"
 width="185.000000pt" height="185.000000pt" viewBox="0 0 185.000000 185.000000"
 preserveAspectRatio="xMidYMid meet">
<metadata>
Created by potrace 1.16, written by Peter Selinger 2001-2019
</metadata>
<g transform="translate(0.000000,185.000000) scale(0.100000,-0.100000)"
fill="#d93636" stroke="none">
<path d="M190 1835 c-57 -18 -124 -74 -153 -129 l-22 -41 0 -735 0 -735 22
-41 c24 -44 74 -93 126 -121 30 -17 83 -18 762 -18 l730 0 54 30 c30 17 67 48
83 69 59 82 59 76 56 842 l-3 699 -30 54 c-30 54 -61 83 -125 117 -33 18 -73
19 -745 21 -588 2 -718 0 -755 -12z m740 -459 c30 -8 67 -19 82 -25 l28 -10
-25 -58 c-14 -31 -27 -59 -29 -61 -2 -2 -34 6 -71 17 -174 54 -330 6 -396
-121 -49 -95 -47 -258 4 -357 48 -93 153 -140 284 -127 98 10 93 4 93 122 l0
104 -90 0 -90 0 0 65 0 65 160 0 160 0 -2 -222 -3 -222 -50 -13 c-162 -42
-350 -37 -452 13 -71 34 -144 116 -174 196 -21 56 -24 79 -24 203 0 169 17
223 97 310 59 65 112 99 188 119 71 19 240 20 310 2z m550 -214 c66 -35 87
-118 51 -198 -37 -80 -134 -127 -295 -140 l-86 -7 0 -61 c0 -115 56 -176 161
-176 34 0 80 8 109 19 l50 19 0 -32 c0 -38 -15 -47 -104 -66 -128 -26 -227 19
-271 125 -25 59 -23 189 5 276 38 116 120 213 206 244 56 20 133 18 174 -3z"/>
<path d="M1312 1099 c-62 -31 -121 -110 -147 -198 l-7 -24 73 7 c147 14 218
47 239 112 33 99 -53 155 -158 103z"/>
</g>
</svg>
