<svg xmlns="http://www.w3.org/2000/svg" width="36" height="32" viewBox="0 0 36 32">
    <g fill="none" fill-rule="evenodd">
        <g>
            <path fill="#F79F1A" d="M34.796 9.856c0 5.442-4.816 9.854-10.757 9.854-5.94 0-10.757-4.412-10.757-9.854 0-5.442 4.816-9.854 10.757-9.854s10.757 4.412 10.757 9.854z" transform="translate(.219 4) translate(.05 .054)"/>
            <path fill="#EA001B" d="M21.526 9.856c0 5.442-4.816 9.854-10.757 9.854S.01 15.298.01 9.856C.011 4.414 4.828.002 10.77.002c5.94 0 10.757 4.412 10.757 9.854z" transform="translate(.219 4) translate(.05 .054)"/>
            <path fill="#FF5F01" d="M17.404 2.099c-2.51 1.804-4.121 4.607-4.121 7.756s1.61 5.954 4.12 7.758c2.51-1.804 4.122-4.61 4.122-7.758 0-3.149-1.611-5.952-4.121-7.756z" transform="translate(.219 4) translate(.05 .054)"/>
            <g fill="#F79F1A" fill-rule="nonzero">
                <path d="M1.155 1.062v-1h-.132L.872.75.721.062H.589v1h.093V.308l.142.65H.92l.142-.652v.756h.093zm-.833 0v-.83H.49V.065H.061v.169H.23v.829h.092z" transform="translate(.219 4) translate(.05 .054) translate(33.888 14.706)"/>
            </g>
        </g>
        <g fill="#000" fill-rule="nonzero">
            <path d="M.682 3.702h-.61V1.097H.67v.318s.526-.388.838-.383c.607.01.97.481.97.481s.293-.481.957-.481c.981 0 1.125.82 1.125.82v1.839h-.586V2.07s.002-.492-.635-.492c-.658 0-.718.492-.718.492v1.62h-.61V2.06s-.059-.515-.61-.515c-.717 0-.73.525-.73.525l.011 1.63zM19.246 1.031c-.313-.005-.838.383-.838.383v-.316h-.6V3.7h.611l-.011-1.63s.013-.524.73-.524c.133 0 .236.03.318.075V1.62l.2-.507c-.121-.047-.257-.08-.41-.082zM27.844 1.031c-.312-.005-.837.383-.837.383v-.316h-.6V3.7h.611l-.011-1.63s.013-.524.73-.524c.133 0 .236.03.318.075V1.62l.199-.507c-.12-.047-.257-.08-.41-.082zM6.534 1.02c-.914 0-1.397.751-1.4 1.378-.002.643.55 1.385 1.425 1.385.51 0 .93-.345.93-.345l-.001.266h.6V1.097h-.602v.328s-.394-.404-.952-.404zm.117.531c.49 0 .889.39.889.871 0 .48-.398.869-.89.869-.49 0-.886-.389-.886-.869s.396-.87.887-.87zM24.056 1.02c-.913 0-1.397.751-1.4 1.378-.002.643.551 1.385 1.426 1.385.51 0 .93-.345.93-.345l-.001.266h.6V1.097h-.603v.328s-.393-.404-.952-.404zm.117.531c.491 0 .89.39.89.871 0 .48-.399.869-.89.869-.49 0-.887-.389-.887-.869s.397-.87.887-.87zM29.825 1.02c-.913 0-1.397.751-1.399 1.378-.003.643.55 1.385 1.425 1.385.51 0 .93-.345.93-.345l-.001.266h.6V.067h-.602v1.358s-.394-.404-.953-.404zm.117.531c.491 0 .89.39.89.871 0 .48-.399.869-.89.869-.49 0-.887-.389-.887-.869s.397-.87.887-.87zM9.922 3.79c-.622 0-1.197-.35-1.197-.35l.264-.373s.543.23.933.23c.253 0 .677-.075.682-.307.006-.244-.712-.317-.712-.317s-1.071-.013-1.071-.82c0-.508.535-.832 1.22-.832.397 0 1.138.317 1.138.317l-.3.427s-.571-.21-.873-.219c-.255-.008-.563.103-.563.306 0 .553 1.784-.043 1.784 1.073 0 .732-.727.864-1.305.864zM12.218.342V1.1h-.531v.547h.531v1.31s-.047.886.995.886c.288 0 .851-.195.851-.195l-.24-.57s-.225.176-.478.17c-.481-.011-.468-.293-.468-.293V1.647h.992V1.1h-.992V.342h-.66zM15.834 1.053c-.98 0-1.47.737-1.465 1.378.004.658.445 1.399 1.523 1.399.461 0 1.11-.37 1.11-.37l-.28-.443s-.441.287-.83.287c-.778 0-.828-.696-.828-.696h2.082s.156-1.555-1.312-1.555zm-.09.511h.073c.733 0 .728.633.728.633h-1.481s-.035-.596.68-.633zM22.029 3.01l.279.51s-.443.264-.94.264c-1.028 0-1.599-.708-1.599-1.377 0-1.053.909-1.362 1.523-1.362.558 0 1.041.294 1.041.294l-.313.51s-.19-.27-.744-.27-.847.436-.847.85c0 .465.34.86.855.86.404 0 .745-.279.745-.279z" transform="translate(.219 4) translate(1.773 20.937)"/>
            <g>
                <path d="M.6.013C.444.016.314.065.21.159.108.253.055.371.052.513.055.653.108.77.21.865c.103.095.233.144.39.148C.756 1.009.884.96.987.865c.102-.095.156-.212.16-.352C1.141.37 1.088.253.985.159.884.065.756.016.601.013zm0 .89C.48.898.382.86.304.787.225.715.185.623.182.513.185.4.225.31.303.237.381.164.48.127.601.124c.117.003.215.04.293.113.077.073.117.164.12.276-.003.11-.043.202-.12.275C.816.861.718.9.6.902zM.633.277h-.23v.465H.51V.569h.048l.151.174h.128L.673.568C.723.562.763.546.79.522.818.497.831.465.832.427.832.38.814.345.78.319.745.292.696.279.632.279zM.631.365c.028 0 .05.006.067.016.016.01.024.025.025.046 0 .02-.009.036-.025.047C.682.484.659.489.63.489H.509V.365H.63z" transform="translate(.219 4) translate(1.773 20.937) translate(32.312 3.337)"/>
            </g>
        </g>
    </g>
</svg>
