<svg xmlns="http://www.w3.org/2000/svg" width="36" height="32" viewBox="0 0 36 32">
    <g fill="none">
        <path fill="#00579F" d="M15.152 10.197L12.32 10.197 14.091.182 16.924.182zM25.42.426C24.862.224 23.976 0 22.88 0c-2.797 0-4.767 1.364-4.78 3.314-.022 1.438 1.411 2.237 2.483 2.717 1.096.49 1.469.81 1.469 1.247-.012.67-.886.98-1.701.98-1.131 0-1.737-.16-2.658-.533l-.373-.16-.396 2.249c.664.276 1.888.522 3.159.533 2.972 0 4.907-1.343 4.93-3.42.01-1.141-.746-2.015-2.378-2.729-.99-.458-1.597-.767-1.597-1.236.011-.426.513-.863 1.631-.863.92-.021 1.597.181 2.11.384l.256.106.385-2.163zM29.185 6.65l1.131-2.803c-.012.021.233-.586.373-.96l.198.864s.536 2.397.652 2.898h-2.354zM32.682.181H30.49c-.676 0-1.19.18-1.48.83l-4.208 9.185h2.972s.49-1.236.594-1.502h3.637c.081.351.338 1.502.338 1.502h2.623L32.682.182zM9.954.182L7.18 7.012l-.303-1.386C6.364 4.028 4.755 2.291 2.96 1.428l2.541 8.759h2.996L12.949.182H9.954z" transform="translate(.969 11)"/>
        <path fill="#FAA61A" d="M4.604.182H.047L0 .384c3.555.831 5.91 2.835 6.877 5.243l-.991-4.604c-.163-.64-.664-.82-1.282-.841z" transform="translate(.969 11)"/>
    </g>
</svg>
