<svg xmlns="http://www.w3.org/2000/svg" width="36" height="32" viewBox="0 0 36 32">
    <g fill="none">
        <path fill="#016FD0" d="M0 0L34.913 0 34.913 17.232 33.185 19.7 34.913 21.898 34.913 31.921 0 31.921 0 15.676 1.08 14.541 0 13.455z" transform="translate(.719)"/>
        <path fill="#FFF" d="M6.777 22.243v-5.011h5.804l.623.742.643-.742h21.066v4.666s-.55.34-1.188.345H22.06l-.702-.79v.79h-2.3v-1.348s-.315.188-.994.188h-.783v1.16h-3.483l-.622-.758-.631.758H6.777zM0 13.455l1.309-2.79h2.263l.743 1.563v-1.563h2.813l.443 1.13.428-1.13h12.63v.568s.664-.568 1.755-.568l4.098.013.73 1.542v-1.555h2.355l.648.886v-.886h2.376v5.011h-2.376l-.621-.888v.888h-3.46l-.347-.79h-.93l-.343.79h-2.346c-.939 0-1.539-.556-1.539-.556v.556h-3.537l-.702-.79v.79H3.237l-.348-.79h-.927l-.345.79H0v-2.221z" transform="translate(.719)"/>
        <path fill="#016FD0" d="M1.772 11.283L.007 15.035h1.149l.326-.751h1.893l.324.751h1.175L3.11 11.283H1.772zm.653.873l.577 1.313H1.846l.58-1.313zM4.995 15.035L4.995 11.282 6.628 11.288 7.578 13.707 8.506 11.282 10.126 11.282 10.126 15.035 9.1 15.035 9.1 12.27 8.012 15.035 7.112 15.035 6.021 12.27 6.021 15.035zM10.828 15.035L10.828 11.282 14.176 11.282 14.176 12.121 11.865 12.121 11.865 12.763 14.122 12.763 14.122 13.553 11.865 13.553 11.865 14.22 14.176 14.22 14.176 15.035zM14.77 11.283v3.752h1.026v-1.333h.432l1.23 1.333h1.254l-1.35-1.382c.554-.043 1.126-.478 1.126-1.153 0-.79-.678-1.217-1.435-1.217H14.77zm1.026.839h1.173c.281 0 .486.201.486.395 0 .25-.265.395-.471.395h-1.188v-.79zM19.954 15.035L18.907 15.035 18.907 11.282 19.954 11.282zM22.438 15.035h-.226c-1.094 0-1.758-.789-1.758-1.861 0-1.1.657-1.892 2.038-1.892h1.134v.889h-1.175c-.561 0-.958.4-.958 1.012 0 .727.454 1.032 1.107 1.032h.27l-.432.82zM24.671 11.283l-1.765 3.752h1.15l.325-.751h1.893l.324.751h1.175l-1.764-3.752h-1.338zm.653.873l.577 1.313h-1.156l.58-1.313zM27.893 15.035L27.893 11.282 29.197 11.282 30.863 13.64 30.863 11.282 31.889 11.282 31.889 15.035 30.627 15.035 28.919 12.615 28.919 15.035zM7.479 21.601L7.479 17.849 10.828 17.849 10.828 18.688 8.516 18.688 8.516 19.33 10.774 19.33 10.774 20.12 8.516 20.12 8.516 20.787 10.828 20.787 10.828 21.601zM23.886 21.601L23.886 17.849 27.234 17.849 27.234 18.688 24.922 18.688 24.922 19.33 27.169 19.33 27.169 20.12 24.922 20.12 24.922 20.787 27.234 20.787 27.234 21.601zM10.958 21.601L12.588 19.748 10.919 17.849 12.211 17.849 13.205 19.023 14.203 17.849 15.445 17.849 13.798 19.725 15.431 21.601 14.139 21.601 13.173 20.446 12.232 21.601zM15.553 17.85v3.752h1.053v-1.185h1.08c.914 0 1.607-.443 1.607-1.305 0-.715-.544-1.263-1.474-1.263h-2.266zm1.053.848h1.137c.296 0 .507.166.507.432 0 .25-.21.432-.51.432h-1.134v-.864zM19.738 17.849V21.6h1.026v-1.333h.432l1.23 1.333h1.254l-1.35-1.382c.554-.043 1.126-.478 1.126-1.153 0-.79-.678-1.217-1.434-1.217h-2.284zm1.026.84h1.173c.281 0 .486.2.486.394 0 .25-.265.395-.47.395h-1.189v-.79zM27.71 21.601v-.814h2.053c.303 0 .435-.15.435-.315 0-.158-.131-.317-.435-.317h-.928c-.807 0-1.256-.45-1.256-1.124 0-.602.411-1.182 1.61-1.182h1.998l-.432.844h-1.728c-.33 0-.432.159-.432.31 0 .156.125.327.378.327h.972c.899 0 1.29.466 1.29 1.077 0 .657-.436 1.194-1.34 1.194H27.71zM31.475 21.601v-.814h2.053c.304 0 .436-.15.436-.315 0-.158-.131-.317-.436-.317H32.6c-.806 0-1.255-.45-1.255-1.124 0-.602.411-1.182 1.61-1.182h1.998l-.432.844h-1.728c-.33 0-.432.159-.432.31 0 .156.125.327.378.327h.972c.899 0 1.289.466 1.289 1.077 0 .657-.435 1.194-1.338 1.194h-2.187z" transform="translate(.719)"/>
    </g>
</svg>
