<svg xmlns="http://www.w3.org/2000/svg" width="33" height="32" viewBox="0 0 33 32">
    <g fill="#FFF" fill-rule="evenodd" opacity=".5">
        <path fill-opacity="0" d="M0 0L32 0 32 32 0 32z" transform="translate(.571)"/>
        <path d="M29.253 21.497c-.065 1.42-.29 2.389-.62 3.237-.34.877-.796 1.62-1.538 2.361-.74.742-1.484 1.198-2.361 1.538-.848.33-1.817.555-3.237.62-1.422.065-1.876.08-5.497.08s-4.075-.015-5.497-.08c-1.42-.065-2.389-.29-3.237-.62-.877-.34-1.62-.796-2.361-1.538-.742-.74-1.198-1.484-1.538-2.361-.33-.848-.555-1.817-.62-3.237-.065-1.422-.08-1.876-.08-5.497s.015-4.075.08-5.497c.065-1.42.29-2.389.62-3.237.34-.877.796-1.62 1.538-2.361.74-.742 1.484-1.198 2.361-1.538.848-.33 1.817-.555 3.237-.62 1.422-.065 1.876-.08 5.497-.08s4.075.015 5.497.08c1.42.065 2.389.29 3.237.62.877.34 1.62.796 2.361 1.538.742.74 1.198 1.484 1.538 2.361.33.848.555 1.817.62 3.237.065 1.422.08 1.876.08 5.497s-.015 4.075-.08 5.497zm-2.662-10.754c-.058-1.27-.27-1.958-.448-2.417-.236-.607-.518-1.04-.973-1.496-.456-.455-.89-.737-1.496-.973-.459-.178-1.148-.39-2.417-.448-1.371-.062-1.783-.076-5.257-.076-3.474 0-3.886.014-5.257.076-1.27.058-1.958.27-2.417.448-.607.236-1.04.518-1.496.973-.455.456-.737.89-.973 1.496-.178.459-.39 1.148-.448 2.417-.062 1.371-.076 1.783-.076 5.257 0 3.474.014 3.886.076 5.257.058 1.27.27 1.958.448 2.417.236.607.518 1.04.973 1.496.456.455.89.737 1.496.973.459.178 1.148.39 2.417.448 1.371.062 1.783.076 5.257.076 3.474 0 3.886-.014 5.257-.076 1.27-.058 1.958-.27 2.417-.448.607-.236 1.04-.518 1.496-.973.455-.456.737-.89.973-1.496.178-.459.39-1.148.448-2.417.062-1.371.076-1.783.076-5.257 0-3.474-.014-3.886-.076-5.257zm-3.924-.076c-.737 0-1.334-.597-1.334-1.334 0-.736.597-1.333 1.334-1.333C23.403 8 24 8.597 24 9.333c0 .737-.597 1.334-1.333 1.334zm-6.667 12c-3.682 0-6.667-2.985-6.667-6.667S12.318 9.333 16 9.333s6.667 2.985 6.667 6.667-2.985 6.667-6.667 6.667zM16 12c-2.21 0-4 1.79-4 4s1.79 4 4 4 4-1.79 4-4-1.79-4-4-4z" transform="translate(.571)"/>
    </g>
</svg>
