<svg xmlns="http://www.w3.org/2000/svg" width="36" height="32" viewBox="0 0 36 32">
    <g fill="none">
        <path fill="#FFF" d="M16.553 6.208v3.724H15.26V.734h3.428c.826-.016 1.626.27 2.22.796.6.495.939 1.202.927 1.942.017.743-.322 1.456-.927 1.952-.6.522-1.34.783-2.22.783h-2.135zm0-4.342v3.211h2.167c.48.013.945-.16 1.279-.475.332-.295.52-.7.52-1.124 0-.424-.188-.83-.52-1.124-.33-.323-.796-.5-1.279-.488h-2.167zM24.813 3.433c.955 0 1.71.234 2.262.7.553.467.83 1.107.829 1.92v3.88h-1.237v-.874h-.056c-.535.72-1.247 1.079-2.135 1.079-.758 0-1.393-.206-1.903-.617-.497-.382-.778-.948-.766-1.54 0-.652.269-1.17.807-1.555.539-.384 1.257-.577 2.157-.578.767 0 1.399.129 1.896.385v-.27c.003-.404-.193-.788-.534-1.046-.342-.281-.787-.435-1.248-.43-.722 0-1.293.278-1.714.835l-1.138-.656c.626-.822 1.553-1.233 2.78-1.233zm-1.672 4.573c-.002.305.158.592.429.77.285.206.64.315 1.004.309.545-.001 1.068-.2 1.454-.552.428-.369.642-.8.642-1.297-.403-.294-.965-.44-1.686-.44-.525 0-.963.115-1.313.347-.354.235-.53.52-.53.863zM35 3.639L30.684 12.707 29.35 12.707 30.952 9.534 28.114 3.639 29.519 3.639 31.57 8.16 31.598 8.16 33.593 3.639z" transform="translate(.969 10)"/>
        <path fill="#4285F4" d="M11.33 5.405c0-.36-.033-.72-.1-1.075H5.78v2.036h3.122c-.13.656-.546 1.236-1.155 1.605v1.321h1.864c1.09-.92 1.72-2.28 1.72-3.887z" transform="translate(.969 10)"/>
        <path fill="#34A853" d="M5.78 10.569c1.56 0 2.873-.468 3.83-1.276l-1.863-1.32c-.518.32-1.186.504-1.967.504-1.508 0-2.787-.93-3.245-2.181H.615v1.361c.982 1.785 2.98 2.912 5.165 2.912z" transform="translate(.969 10)"/>
        <path fill="#FBBC04" d="M2.535 6.296c-.242-.656-.242-1.367 0-2.023V2.912H.615c-.82 1.492-.82 3.252 0 4.745l1.92-1.361z" transform="translate(.969 10)"/>
        <path fill="#EA4335" d="M5.78 2.092c.824-.013 1.62.272 2.217.792l1.65-1.508C8.6.478 7.215-.015 5.78 0 3.595 0 1.597 1.127.616 2.912l1.92 1.361c.457-1.252 1.736-2.181 3.244-2.181z" transform="translate(.969 10)"/>
    </g>
</svg>
