<svg xmlns="http://www.w3.org/2000/svg" width="36" height="32" viewBox="0 0 36 32">
    <g fill="none">
        <path fill="#03A9F4" d="M26.557 5.112c-.77-.67-1.885-.887-2.886-.563-.284.086-.49.31-.534.58l-.223 1.398c-.337 2.11-2.312 3.678-4.645 3.686h-3.177c-.365 0-.682.227-.77.55l-2.384 8.716c-.106.389.153.783.579.88.063.014.127.022.192.022h3.971c.365 0 .683-.227.77-.55l1.439-5.26h3.098c2.378.007 4.452-1.475 5.02-3.586l.586-2.149c.413-1.321.017-2.743-1.036-3.724z" transform="translate(.469 1)"/>
        <g fill="#283593">
            <path d="M.794 7.308C.355 7.308 0 6.983 0 6.582c0-.06.008-.118.024-.176l.794-2.89v-.03l.794-2.89c.089-.323.406-.55.77-.55h2.022C5.5.046 6.39.86 6.39 1.861c0 .149-.02.297-.06.44l-.198.727c-.22.809-1.015 1.376-1.927 1.376H2.21l-.644 2.354c-.088.324-.407.551-.772.55zm1.813-4.357h1.598c.182 0 .34-.114.384-.276l.199-.726c.054-.194-.073-.39-.285-.44-.032-.008-.066-.012-.1-.012h-1.4l-.396 1.454zM9.289 7.308H8.158c-1.217 0-2.203-.9-2.203-2.012 0-.165.022-.33.066-.489l.105-.386c.235-.867 1.088-1.475 2.065-1.472h1.131c1.216.002 2.2.905 2.198 2.017 0 .164-.022.327-.066.486l-.105.386c-.235.865-1.086 1.472-2.06 1.47zM7.563 5.16c-.081.3.12.605.448.68.048.01.097.016.147.016h1.13c.246 0 .46-.152.519-.369l.104-.386c.082-.3-.118-.605-.447-.68-.048-.01-.097-.016-.147-.016h-1.13c-.246 0-.46.151-.519.369l-.105.386z" transform="translate(.469 1) translate(0 21.787)"/>
            <path d="M10.326 7.308c-.439 0-.794-.325-.794-.726 0-.06.008-.118.024-.176l.794-2.905c.106-.389.537-.626.963-.529.426.097.686.491.58.88l-.795 2.906c-.088.324-.407.551-.772.55z" transform="translate(.469 1) translate(0 21.787)"/>
        </g>
        <g fill="#03A9F4">
            <path d="M.794 7.308C.355 7.308 0 6.983 0 6.582c0-.06.008-.118.024-.176l.794-2.89v-.03l.794-2.89c.089-.323.406-.55.77-.55h2.022C5.5.046 6.39.858 6.39 1.861c0 .149-.02.297-.06.44l-.198.727c-.22.809-1.015 1.376-1.927 1.376H2.21l-.644 2.354c-.088.324-.407.551-.772.55zm1.813-4.357h1.6c.182 0 .34-.114.384-.276l.199-.726c.054-.194-.073-.39-.285-.44-.033-.008-.066-.012-.1-.012H3.004l-.397 1.454zM9.289 7.308H8.158c-1.217 0-2.203-.9-2.203-2.012 0-.165.022-.33.066-.489l.105-.386c.235-.867 1.088-1.475 2.065-1.472h1.131c1.216 0 2.202.901 2.202 2.013 0 .165-.022.329-.065.489l-.105.386c-.235.867-1.088 1.475-2.065 1.471zM7.563 5.16c-.081.3.12.605.448.68.048.01.097.016.147.016h1.13c.246 0 .46-.152.519-.369l.104-.386c.082-.3-.118-.605-.447-.68-.048-.01-.097-.016-.147-.016h-1.13c-.246 0-.46.151-.519.369l-.105.386z" transform="translate(.469 1) translate(19.064 21.787)"/>
            <path d="M10.326 7.308c-.439 0-.794-.325-.794-.726 0-.06.008-.118.024-.176l.794-2.905c.106-.389.537-.626.963-.529.426.097.686.491.58.88l-.795 2.906c-.088.324-.407.551-.772.55z" transform="translate(.469 1) translate(19.064 21.787)"/>
        </g>
        <g fill="#283593">
            <path d="M2.432 3.655c-.265 0-.513-.122-.66-.324L.182 1.15C-.06.819.039.368.403.146c.366-.223.86-.133 1.103.2l1.588 2.18c.244.333.146.784-.218 1.007-.131.08-.285.123-.443.123z" transform="translate(.469 1) translate(12.66 24.715)"/>
            <path d="M.844 5.833c-.439 0-.794-.325-.794-.726 0-.17.065-.334.184-.465L4.205.285c.281-.308.783-.35 1.12-.093.336.258.382.716.1 1.024L1.454 5.573c-.151.165-.375.26-.61.26z" transform="translate(.469 1) translate(12.66 24.715)"/>
        </g>
        <path fill="#03A9F4" d="M32.567 29.096c-.439 0-.794-.326-.794-.727 0-.059.008-.118.024-.175l1.588-5.81c.106-.39.538-.627.964-.53.426.097.685.492.579.881l-1.589 5.81c-.088.324-.407.551-.772.55z" transform="translate(.469 1)"/>
        <path fill="#283593" d="M23.934 1.302C23.171.503 22.067.045 20.906.046h-8.991c-.385 0-.714.251-.782.597L7.956 16.62c-.078.395.208.773.64.844.047.008.094.012.141.012h4.766c.365 0 .683-.227.77-.55l1.44-5.26h2.556c3.125-.011 5.77-2.112 6.22-4.939l.397-2.482c.164-1.06-.183-2.134-.952-2.943z" transform="translate(.469 1)"/>
    </g>
</svg>
