<svg xmlns="http://www.w3.org/2000/svg" width="33" height="32" viewBox="0 0 33 32">
    <g fill="none" fill-rule="evenodd" opacity=".5">
        <path d="M0 0L32 0 32 32 0 32z" transform="translate(.571)"/>
        <path fill="#FFF" d="M28.06 11.358c.365 8.081-5.68 17.092-16.379 17.092-3.254 0-6.282-.95-8.833-2.582 3.058.359 6.11-.486 8.532-2.379-2.523-.047-4.65-1.708-5.382-3.99.904.171 1.792.12 2.601-.098-2.772-.555-4.683-3.044-4.622-5.706.776.43 1.666.69 2.609.72-2.565-1.711-3.292-5.089-1.784-7.672 2.842 3.476 7.088 5.763 11.877 6.003-.84-3.593 1.894-7.054 5.614-7.054 1.657 0 3.154.697 4.206 1.816 1.313-.258 2.547-.736 3.66-1.394-.43 1.343-1.344 2.468-2.533 3.179 1.165-.14 2.277-.448 3.31-.905-.774 1.148-1.751 2.16-2.876 2.97z" transform="translate(.571)"/>
    </g>
</svg>
