<svg xmlns="http://www.w3.org/2000/svg" width="16" height="16" viewBox="0 0 16 16">
    <path fill="#FFF" fill-rule="evenodd" d="M7 1c.828 0 1.607.156 2.338.469.73.312 1.367.74 1.91 1.283.543.543.97 1.18 1.283 1.91.313.73.469 1.51.469 2.338 0 .828-.156 1.607-.469 2.338-.184.43-.408.829-.673 1.194.104.047.202.114.288.2l2.829 2.829c.39.39.39 1.023 0 1.414-.39.39-1.024.39-1.414 0l-2.829-2.829c-.086-.086-.153-.184-.201-.288-.364.265-.763.489-1.193.673-.73.313-1.51.469-2.338.469-.828 0-1.607-.156-2.338-.469-.73-.312-1.367-.74-1.91-1.283-.543-.543-.97-1.18-1.283-1.91C1.156 8.608 1 7.828 1 7c0-.828.156-1.607.469-2.338.312-.73.74-1.367 1.283-1.91.543-.543 1.18-.97 1.91-1.283C5.392 1.156 6.172 1 7 1zm0 1.5c-.623 0-1.207.119-1.753.356-.546.238-1.021.559-1.426.963-.405.405-.727.88-.964 1.425-.238.545-.357 1.129-.357 1.751 0 .622.119 1.206.357 1.75.237.546.559 1.023.964 1.43.405.409.88.731 1.426.969.546.237 1.13.356 1.753.356s1.207-.119 1.753-.356c.546-.238 1.021-.56 1.426-.968.405-.408.727-.885.964-1.43.238-.545.357-1.129.357-1.751 0-.622-.119-1.206-.357-1.75-.237-.546-.559-1.02-.964-1.426-.405-.404-.88-.725-1.426-.963C8.207 2.62 7.623 2.5 7 2.5z"/>
</svg>
