<svg xmlns="http://www.w3.org/2000/svg" xmlns:xlink="http://www.w3.org/1999/xlink" width="40" height="40" viewBox="0 0 40 40">
    <defs>
        <rect id="prefix__a" width="40" height="40" x="0" y="0" rx="4"/>
    </defs>
    <g fill="none" fill-rule="evenodd">
        <mask id="prefix__b" fill="#fff">
            <use xlink:href="#prefix__a"/>
        </mask>
        <use fill="#F5F5F5" xlink:href="#prefix__a"/>
        <g mask="url(#prefix__b)">
            <g>
                <path fill="#B8413D" d="M13.333 18.333L15.417 11.667 19.583 11.667 21.667 18.333zM2.708 20L0 35.833 5.417 35.833 10.833 20zM24.167 20L29.583 35.833 35 35.833 32.292 20z" transform="translate(2.5 4.167)"/>
                <path fill="#D14A45" d="M0.833 17.722L17.5 14.167 34.167 17.722 17.5 44.167z" transform="translate(2.5 4.167)"/>
                <path fill="#FFF" fill-rule="nonzero" d="M15.09 27.581c.488 0 .933-.072 1.334-.217.402-.145.712-.35.932-.613v-2.364h-2.332v.9h1.111v1.02c-.195.196-.522.294-.98.294-.456 0-.802-.159-1.038-.476-.236-.318-.354-.787-.354-1.408v-.379c.003-.615.113-1.08.33-1.391.217-.312.533-.468.948-.468.325 0 .58.079.767.236.186.157.306.405.36.744h1.188c-.073-.64-.308-1.127-.704-1.462-.396-.335-.945-.503-1.648-.503-.504 0-.945.115-1.32.344-.376.23-.664.56-.863.993-.2.432-.299.944-.299 1.536v.403c.005.575.113 1.075.324 1.501.21.426.508.75.895.975.386.223.836.335 1.349.335zm7.405-.081v-.98h-2.75v-1.588h2.343v-.956h-2.344v-1.412h2.743v-.988h-3.964V27.5h3.972z" transform="translate(2.5 4.167)"/>
                <path fill="#D14A45" d="M17.497 0L13.696 0.437 10.833 4.634 14.089 12.131 17.501 13.333 20.911 12.131 24.167 4.634 21.305 0.437 17.503 0z" transform="translate(2.5 4.167)"/>
            </g>
        </g>
    </g>
</svg>
