<svg xmlns="http://www.w3.org/2000/svg" xmlns:xlink="http://www.w3.org/1999/xlink" width="16" height="16" viewBox="0 0 16 16">
    <defs>
        <path id="prefix__a" d="M0 0H16V16H0z"/>
    </defs>
    <g fill="none" fill-rule="evenodd">
        <mask id="prefix__b" fill="#fff">
            <use xlink:href="#prefix__a"/>
        </mask>
        <path fill="#FFF" d="M8 15.235c-.228 0-.447-.083-.619-.233-.646-.565-1.27-1.096-1.819-1.564l-.003-.003c-1.612-1.373-3.004-2.56-3.972-3.728C.504 8.4 0 7.162 0 5.808c0-1.314.45-2.527 1.27-3.415C2.097 1.495 3.233 1 4.47 1c.923 0 1.77.292 2.514.868.375.29.716.646 1.016 1.061.3-.415.64-.77 1.016-1.061C9.761 1.292 10.606 1 11.53 1c1.236 0 2.373.495 3.2 1.393.82.888 1.27 2.1 1.27 3.415 0 1.354-.504 2.592-1.587 3.899-.968 1.168-2.36 2.354-3.972 3.728-.55.47-1.175 1.001-1.823 1.568-.17.15-.39.232-.618.232zM4.47 1.937c-.971 0-1.863.388-2.512 1.091C1.3 3.743.938 4.73.938 5.808c0 1.139.422 2.156 1.37 3.3.917 1.107 2.28 2.269 3.86 3.614l.002.002c.552.47 1.178 1.004 1.829 1.573.655-.57 1.281-1.104 1.834-1.575 1.579-1.346 2.942-2.507 3.859-3.613.948-1.145 1.37-2.162 1.37-3.3 0-1.08-.362-2.066-1.02-2.78-.649-.704-1.54-1.092-2.512-1.092-.71 0-1.364.226-1.94.672-.514.398-.872.9-1.082 1.252-.108.18-.298.288-.508.288-.21 0-.4-.108-.508-.288-.21-.352-.568-.854-1.082-1.252-.576-.446-1.23-.672-1.94-.672z" mask="url(#prefix__b)"/>
    </g>
</svg>
