<svg xmlns="http://www.w3.org/2000/svg" xmlns:xlink="http://www.w3.org/1999/xlink" width="16" height="16" viewBox="0 0 16 16">
    <defs>
        <path id="prefix__a" d="M0 0H16V16H0z"/>
    </defs>
    <g fill="none" fill-rule="evenodd">
        <mask id="prefix__b" fill="#fff">
            <use xlink:href="#prefix__a"/>
        </mask>
        <path fill="#FFF" d="M6 10v2H1c-.552 0-1-.448-1-1s.448-1 1-1h5zm3-4v2H1c-.552 0-1-.448-1-1s.448-1 1-1h8zm4-4c.552 0 1 .448 1 1s-.448 1-1 1H1c-.552 0-1-.448-1-1s.448-1 1-1h12z" mask="url(#prefix__b)"/>
        <rect width="2" height="8" x="11" y="7" fill="#FFF" mask="url(#prefix__b)" rx="1"/>
        <rect width="8" height="2" x="8" y="10" fill="#FFF" mask="url(#prefix__b)" rx="1"/>
    </g>
</svg>
