<svg xmlns="http://www.w3.org/2000/svg" width="32" height="32" viewBox="0 0 32 32">
    <g fill="none" fill-rule="evenodd">
        <path d="M0 0H32V32H0z"/>
        <path fill="#FFF" d="M25 0l5 5v24c0 1.657-1.343 3-3 3H8c-1.657 0-3-1.343-3-3V15H4c-.552 0-1-.448-1-1V6c0-.552.448-1 1-1h1V3c0-1.657 1.343-3 3-3h17zm-1 1H8c-1.105 0-2 .895-2 2v2h15c.552 0 1 .448 1 1v8c0 .552-.448 1-1 1H6v14c0 1.054.816 1.918 1.85 1.995L8 31h19c1.105 0 2-.895 2-2V6h-4c-.552 0-1-.448-1-1V1zm-6.743 16.56c.151-.08.335-.08.486 0l4.5 2.396c.159.085.257.245.257.419v5.75c0 .174-.098.334-.257.419l-4.5 2.396c-.151.08-.335.08-.486 0l-4.5-2.396c-.159-.085-.257-.245-.257-.419v-5.75c0-.174.098-.334.257-.419zM13.5 21.5v4.284L17 27.5v-4.284L13.5 21.5zm8 0L18 23.215V27.5l3.5-1.715V21.5zm-4-3l-4 2 4 2 4-2-4-2zM20 6H5c-.552 0-1 .448-1 1v6c0 .552.448 1 1 1h15c.552 0 1-.448 1-1V7c0-.552-.448-1-1-1zM8.112 7.5c.239 0 .467.03.684.09.218.06.445.144.682.253l-.315.801-.176-.073c-.168-.068-.313-.118-.433-.15-.16-.042-.318-.063-.474-.063-.184 0-.326.046-.425.137-.098.09-.148.21-.148.356 0 .09.02.17.06.237.04.068.104.134.19.197.088.063.294.177.62.34.43.218.724.436.884.654.16.219.239.487.239.804 0 .439-.15.785-.449 1.038-.299.253-.715.379-1.248.379-.49 0-.925-.098-1.303-.293v-.958l.18.083c.234.103.436.179.609.227.215.06.411.09.59.09.214 0 .378-.044.492-.13.115-.087.172-.215.172-.386 0-.096-.025-.18-.076-.255-.05-.074-.124-.146-.221-.214-.098-.07-.297-.179-.597-.33-.281-.14-.492-.274-.633-.402-.14-.129-.253-.279-.337-.45-.084-.17-.125-.37-.125-.598 0-.43.138-.769.413-1.015.276-.246.658-.369 1.145-.369zm6.388 0v.882h-1.438V12.5h-1.124V8.382H10.5V7.5h4zm2.03 0v4.124h1.97v.876h-3v-5h1.03z"/>
    </g>
</svg>
