<svg xmlns="http://www.w3.org/2000/svg" xmlns:xlink="http://www.w3.org/1999/xlink" width="32" height="32" viewBox="0 0 32 32">
    <defs>
        <path id="prefix__a" d="M0 0H32V32H0z"/>
    </defs>
    <g fill="none" fill-rule="evenodd">
        <mask id="prefix__b" fill="#fff">
            <use xlink:href="#prefix__a"/>
        </mask>
        <path fill="#FFF" d="M8 1L6 3H3v3h3v1H3v4h3v1H3v4h3v1H3v4h3v1H3v4h3v1H3v2h3l2 2H1v-2h1V3H1V1h7z" mask="url(#prefix__b)"/>
        <g mask="url(#prefix__b)">
            <g>
                <path fill="#BDBDBD" d="M12.6 14L15 30h-4l-1-6H8l-1 6H3l2.243-16H12.6z" transform="translate(10 1)"/>
                <path fill="#BDBDBD" d="M7 9L8 6 10 6 11 9zM1 10L0 20 2 20 4 10zM14 10L16 20 18 20 17 10z" transform="translate(10 1)"/>
                <path fill="#FFF" d="M0 9L9 8 18 9 9 23zM8.999 0L7.288.229 6 2.433 7.465 6.369 9 7 10.535 6.369 12 2.433 10.712.229 9.002 0z" transform="translate(10 1)"/>
            </g>
        </g>
    </g>
</svg>
