<svg xmlns="http://www.w3.org/2000/svg" width="16" height="17" viewBox="0 0 16 17">
    <g fill="#FFF" fill-rule="evenodd">
        <path d="M4 10v2H2c-.552 0-1-.448-1-1s.448-1 1-1h2zm7-4L9 8H2c-.552 0-1-.448-1-1s.448-1 1-1h9zm2-4c.552 0 1 .448 1 1s-.448 1-1 1H2c-.552 0-1-.448-1-1s.448-1 1-1h11zM4.904 9.354c.39-.391 1.023-.391 1.414 0l2.121 2.12 4.243-4.242c.39-.39 1.024-.39 1.414 0 .39.39.39 1.024 0 1.414l-4.95 4.95c-.39.39-1.023.39-1.414 0l-2.828-2.828c-.39-.39-.39-1.024 0-1.414z" transform="translate(0 1)"/>
    </g>
</svg>
