<svg xmlns="http://www.w3.org/2000/svg" xmlns:xlink="http://www.w3.org/1999/xlink" width="32" height="32" viewBox="0 0 32 32">
    <defs>
        <path id="prefix__a" d="M0 0H32V32H0z"/>
    </defs>
    <g fill="none" fill-rule="evenodd">
        <mask id="prefix__b" fill="#fff">
            <use xlink:href="#prefix__a"/>
        </mask>
        <g mask="url(#prefix__b)">
            <g>
                <path fill="#BDBDBD" d="M12.6 14L15 30h-4l-1-6H8l-1 6H3l2.243-16H12.6z" transform="translate(7 1)"/>
                <path fill="#BDBDBD" d="M7 9L8 6 10 6 11 9zM1 10L0 20 2 20 4 10zM14 10L16 20 18 20 17 10z" transform="translate(7 1)"/>
                <path fill="#FFF" d="M0 9L9 8 18 9 9 23zM8.999 0L7.288.229 6 2.433 7.465 6.369 9 7 10.535 6.369 12 2.433 10.712.229 9.002 0z" transform="translate(7 1)"/>
            </g>
        </g>
        <path fill="#FFF" d="M31 23v8h-8l2-2h4v-4l2-2zM9 1L7 3H3v4L1 9V1h8z" mask="url(#prefix__b)"/>
    </g>
</svg>
