<svg xmlns="http://www.w3.org/2000/svg" width="17" height="17" viewBox="0 0 17 17">
    <g opacity=".9">
        <g fill="none" fill-rule="evenodd" opacity=".5">
            <path fill="#FFF" fill-opacity="0" d="M0 0L16 0 16 16 0 16z" transform="translate(.25 .25)"/>
            <path fill="#000" d="M14.627 10.749c-.033.71-.146 1.194-.31 1.618-.17.438-.399.81-.77 1.18-.37.371-.742.6-1.18.77-.424.164-.909.277-1.618.31-.711.032-.938.04-2.749.04-1.81 0-2.038-.008-2.749-.04-.71-.033-1.194-.146-1.618-.31-.438-.17-.81-.399-1.18-.77-.371-.37-.6-.742-.77-1.18-.164-.424-.277-.909-.31-1.618-.032-.711-.04-.938-.04-2.749 0-1.81.008-2.038.04-2.749.033-.71.146-1.194.31-1.618.17-.438.399-.81.77-1.18.37-.371.742-.6 1.18-.77.424-.164.909-.277 1.618-.31.711-.032.938-.04 2.749-.04 1.81 0 2.038.008 2.749.04.71.033 1.194.146 1.618.31.438.17.81.399 1.18.77.371.37.6.742.77 1.18.164.424.277.909.31 1.618.032.711.04.938.04 2.749 0 1.81-.008 2.038-.04 2.749zM13.295 5.37c-.029-.634-.134-.979-.224-1.208-.118-.303-.259-.52-.486-.748-.228-.227-.445-.368-.748-.486-.23-.09-.574-.195-1.208-.224-.686-.032-.892-.038-2.629-.038s-1.943.006-2.629.038c-.634.029-.979.134-1.208.224-.303.118-.52.259-.748.486-.227.228-.368.445-.486.748-.09.23-.195.574-.224 1.208-.032.686-.038.892-.038 2.629s.006 1.943.038 2.629c.029.634.134.979.224 1.208.118.303.259.52.486.748.228.227.445.368.748.486.23.09.574.195 1.208.224.686.032.892.038 2.629.038s1.943-.006 2.629-.038c.634-.029.979-.134 1.208-.224.303-.118.52-.259.748-.486.227-.228.368-.445.486-.748.09-.23.195-.574.224-1.208.032-.686.038-.892.038-2.629s-.006-1.943-.038-2.629zm-1.962-.038c-.368 0-.666-.298-.666-.666 0-.369.298-.667.666-.667.369 0 .667.298.667.667 0 .368-.298.666-.667.666zm-3.333 6c-1.84 0-3.333-1.492-3.333-3.333 0-1.84 1.492-3.333 3.333-3.333 1.84 0 3.333 1.492 3.333 3.333 0 1.84-1.492 3.333-3.333 3.333zM8 6c-1.105 0-2 .895-2 2s.895 2 2 2 2-.895 2-2-.895-2-2-2z" transform="translate(.25 .25)"/>
        </g>
    </g>
</svg>
