<svg xmlns="http://www.w3.org/2000/svg" width="16" height="16" viewBox="0 0 16 16">
    <g fill="#FFF" fill-rule="evenodd">
        <path d="M14.757 6.21c.29-.283.392-.697.267-1.082-.126-.385-.452-.66-.852-.718l-3.501-.509c-.069-.01-.128-.053-.16-.115L8.947.614C8.767.25 8.405.025 8 .025c-.405 0-.767.226-.946.589L5.488 3.786c-.03.062-.09.105-.159.115l-3.5.509c-.4.058-.727.333-.852.718-.125.385-.023.8.267 1.082l2.533 2.47c.05.048.072.117.06.186l-.597 3.487c-.069.398.092.794.42 1.032.327.238.753.268 1.11.08l3.132-1.646c.061-.033.135-.033.196 0l3.132 1.646c.155.082.324.122.492.122.217 0 .434-.068.619-.202.327-.238.488-.634.42-1.032l-.598-3.487c-.012-.069.01-.138.06-.187l2.534-2.47zM11.33 9.009l.598 3.486c.02.117-.052.184-.084.207-.032.023-.118.071-.223.016l-3.13-1.646c-.155-.081-.323-.122-.492-.122-.169 0-.337.04-.49.122l-3.132 1.646c-.105.055-.19.007-.222-.016s-.104-.09-.084-.207L4.67 9.01c.058-.343-.055-.692-.304-.934l-2.533-2.47c-.085-.082-.066-.179-.053-.216.012-.038.053-.127.17-.144l3.5-.508c.344-.05.641-.266.795-.578L7.811.987C7.863.881 7.96.87 8 .87c.039 0 .136.012.188.118L9.755 4.16c.154.312.45.528.794.578l3.501.508c.118.017.159.106.17.144.013.038.032.134-.053.216l-2.533 2.47c-.249.242-.362.591-.303.934zM12.93.613c-.188-.137-.452-.095-.589.094l-.448.616c-.137.189-.095.453.094.59.075.054.161.08.247.08.13 0 .26-.06.342-.174l.448-.616c.137-.189.095-.453-.093-.59zM4.105 1.32L3.657.705c-.137-.188-.4-.23-.59-.093-.188.137-.23.4-.093.59l.448.616c.083.114.211.174.342.174.086 0 .173-.026.248-.08.188-.138.23-.402.093-.59zM1.548 9.495c-.072-.222-.31-.343-.531-.271l-.725.235c-.222.072-.343.31-.271.532.058.178.223.292.401.292.043 0 .087-.007.13-.02l.726-.236c.221-.073.343-.31.27-.532zM8 14.18c-.233 0-.422.19-.422.423v.762c0 .233.19.422.422.422.233 0 .422-.189.422-.422v-.762c0-.233-.189-.422-.422-.422zM15.708 9.46l-.725-.236c-.221-.072-.46.05-.532.271-.072.222.05.46.271.532l.725.236c.044.014.088.02.13.02.179 0 .344-.113.402-.291.072-.222-.05-.46-.27-.532z"/>
    </g>
</svg>
