<svg xmlns="http://www.w3.org/2000/svg" width="14" height="16" viewBox="0 0 14 16">
    <g fill="none" fill-rule="evenodd">
        <g fill="#FFF">
            <path d="M.016 5.703v4.203c0 .323.263.586.586.586.323 0 .586-.263.586-.586V5.703h.937V16h1.172V9.89h.937V16h1.172V4.062h-3.75c-.904 0-1.64.736-1.64 1.641z"/>
            <circle cx="3.766" cy="1.563" r="1.563"/>
            <path d="M12.094 4.063h-3.75V16h1.172V9.89h.937V16h1.172V9.907 5.703h.938v4.204c0 .322.262.585.585.585.324 0 .586-.263.586-.586V5.703c0-.905-.736-1.64-1.64-1.64z"/>
            <circle cx="9.984" cy="1.563" r="1.563"/>
        </g>
        <path stroke="#FFF" d="M7 0L7 16"/>
    </g>
</svg>
