<svg xmlns="http://www.w3.org/2000/svg" width="16" height="16" viewBox="0 0 16 16">
    <g fill="#D50000" fill-rule="evenodd" opacity=".9">
        <circle cx="5.839" cy="6.628" r="1"/>
        <circle cx="10.159" cy="9.337" r="1"/>
        <path d="M15.765 8.866l-.246-.33c-.267-.36-.274-.848-.01-1.215l.24-.333c.366-.51.196-1.22-.367-1.518l-.367-.194c-.4-.209-.62-.647-.543-1.09l.07-.402c.107-.615-.363-1.184-1-1.21l-.417-.017c-.453-.02-.846-.32-.973-.749l-.117-.392C11.86.814 11.185.503 10.6.75l-.384.16C9.8 1.089 9.312.985 9.01.65L8.732.346C8.31-.12 7.565-.116 7.145.359l-.273.307c-.3.337-.783.449-1.203.278L5.282.787c-.59-.239-1.257.085-1.427.687l-.11.396c-.12.432-.506.74-.96.763l-.416.023c-.637.036-1.097.612-.98 1.227l.076.402c.084.439-.13.88-.526 1.096l-.364.2C.02 5.885-.14 6.598.235 7.102l.247.33c.267.36.273.848.01 1.215l-.24.333C-.115 9.49.055 10.2.62 10.5l.366.193c.4.209.62.647.544 1.09l-.07.402c-.107.615.363 1.184 1 1.21l.416.017c.454.02.847.32.974.749l.116.393c.177.602.85.912 1.437.664l.383-.16c.417-.177.904-.073 1.207.261l.277.305c.426.464 1.17.46 1.586-.014l.274-.307c.3-.337.783-.448 1.203-.278l.387.157c.59.239 1.256-.085 1.426-.687l.11-.396c.12-.432.507-.74.96-.763l.417-.023c.637-.036 1.097-.611.98-1.227l-.077-.402c-.083-.438.13-.88.527-1.096l.363-.2c.557-.3.717-1.014.34-1.521zM4.195 6.628c0-.89.734-1.61 1.64-1.61.907 0 1.64.72 1.64 1.61 0 .89-.733 1.61-1.64 1.61-.906 0-1.64-.723-1.64-1.61zm1.957 4.152c-.14.167-.393.19-.563.052-.17-.137-.194-.386-.054-.553L9.84 5.191c.14-.166.393-.19.563-.052.17.137.193.386.053.553L6.152 10.78zm4.007.167c-.907 0-1.64-.72-1.64-1.61 0-.89.733-1.61 1.64-1.61.906 0 1.64.72 1.64 1.61 0 .89-.734 1.61-1.64 1.61z"/>
    </g>
</svg>
