<svg xmlns="http://www.w3.org/2000/svg" width="16" height="16" viewBox="0 0 16 16">
    <path fill="#FFF" fill-rule="evenodd" d="M4 0h8c.828 0 1.5.672 1.5 1.5V9c0 .828-.672 1.5-1.5 1.5H4c-.828 0-1.5-.672-1.5-1.5V1.5C2.5.672 3.172 0 4 0zm-.5 11h9c.552 0 1 .448 1 1v3c0 .552-.448 1-1 1h-9c-.552 0-1-.448-1-1v-3c0-.552.448-1 1-1zm5 1h2c.276 0 .5.224.5.5s-.224.5-.5.5h-2c-.276 0-.5-.224-.5-.5s.224-.5.5-.5zm3.5 0c.276 0 .5.224.5.5s-.224.5-.5.5-.5-.224-.5-.5.224-.5.5-.5zM4 1.5h8V9H4V1.5zm4.5 1c.276 0 .5.224.5.5v1h1v1H9v3h2l-.6 1H5.6L5 8h2V5H6V4h1V3c0-.276.224-.5.5-.5h1z"/>
</svg>
