<svg xmlns="http://www.w3.org/2000/svg" width="16" height="16" viewBox="0 0 16 16">
    <g fill="none" fill-rule="evenodd">
        <path fill="#FFF" d="M6 1c.828 0 1.607.156 2.338.469.73.312 1.367.74 1.91 1.283.543.543.97 1.18 1.283 1.91.313.73.469 1.51.469 2.338 0 .828-.156 1.607-.469 2.338-.244.571-.56 1.085-.945 1.542l3.389 3.388c.195.195.195.512 0 .707-.195.195-.512.195-.707 0L9.88 11.586c-.457.386-.97.7-1.542.945-.73.313-1.51.469-2.338.469-.828 0-1.607-.156-2.338-.469-.73-.312-1.367-.74-1.91-1.283-.543-.543-.97-1.18-1.283-1.91C.156 8.608 0 7.828 0 7c0-.828.156-1.607.469-2.338.312-.73.74-1.367 1.283-1.91.543-.543 1.18-.97 1.91-1.283C4.392 1.156 5.172 1 6 1zm0 1c-.692 0-1.341.132-1.948.396-.606.264-1.134.62-1.584 1.07-.45.45-.808.977-1.072 1.583S1 6.303 1 6.994c0 .692.132 1.34.396 1.946.264.606.621 1.135 1.072 1.588.45.454.978.812 1.584 1.076C4.66 11.868 5.308 12 6 12s1.341-.132 1.948-.396c.606-.264 1.134-.622 1.584-1.076.45-.453.808-.982 1.072-1.588.264-.606.396-1.254.396-1.946 0-.69-.132-1.34-.396-1.945-.264-.606-.621-1.133-1.072-1.583-.45-.45-.978-.806-1.584-1.07C7.34 2.132 6.692 2 6 2z" transform="matrix(-1 0 0 1 16 0)"/>
        <path stroke="#FFF" stroke-linecap="round" d="M3 7L9 7M6 10L6 4" transform="matrix(-1 0 0 1 16 0)"/>
    </g>
</svg>
