<svg xmlns="http://www.w3.org/2000/svg" width="16" height="16" viewBox="0 0 16 16">
    <path fill="#FFF" fill-rule="evenodd" d="M9.233 7.996l5.502-5.502c.342-.342.342-.896 0-1.237-.342-.342-.895-.342-1.237 0L7.996 6.759 2.494 1.257c-.342-.342-.896-.342-1.238 0-.341.341-.341.895 0 1.237L6.76 7.996l-5.503 5.502c-.341.341-.341.896 0 1.237.171.17.395.256.619.256.224 0 .448-.085.619-.256l5.502-5.502 5.502 5.502c.17.17.395.256.619.256.223 0 .447-.085.618-.256.342-.342.342-.896 0-1.237L9.233 7.996z"/>
</svg>
