<svg xmlns="http://www.w3.org/2000/svg" width="16" height="16" viewBox="0 0 16 16">
    <path fill="#616161" fill-rule="evenodd" d="M8 1c.966 0 1.875.182 2.728.547.852.364 1.595.863 2.228 1.497.634.633 1.133 1.376 1.497 2.228C14.818 6.125 15 7.034 15 8c0 .966-.182 1.875-.547 2.728-.364.852-.863 1.595-1.497 2.228-.633.634-1.376 1.133-2.228 1.497C9.875 14.818 8.966 15 8 15c-.966 0-1.875-.182-2.728-.547-.852-.364-1.595-.863-2.228-1.497-.634-.633-1.133-1.376-1.497-2.228C1.182 9.875 1 8.966 1 8c0-.966.182-1.875.547-2.728.364-.852.863-1.595 1.497-2.228.633-.634 1.376-1.133 2.228-1.497C6.125 1.182 7.034 1 8 1zm0 .875c.848 0 1.643.162 2.386.485.743.324 1.39.761 1.941 1.313.552.551.99 1.198 1.313 1.941.323.743.485 1.538.485 2.386 0 .848-.162 1.643-.485 2.386-.324.743-.761 1.392-1.313 1.948-.551.556-1.198.996-1.941 1.32-.743.323-1.538.485-2.386.485-.848 0-1.643-.162-2.386-.486-.743-.323-1.39-.763-1.941-1.319-.552-.556-.99-1.205-1.313-1.948-.323-.743-.485-1.538-.485-2.386 0-.848.162-1.643.485-2.386.324-.743.761-1.39 1.313-1.941.551-.552 1.198-.99 1.941-1.313.743-.323 1.538-.485 2.386-.485zM5.879 5.172c-.196-.196-.512-.196-.707 0-.196.195-.196.511 0 .707L7.292 8l-2.12 2.121c-.196.196-.196.512 0 .707.195.196.511.196.707 0L8 8.708l2.121 2.12c.196.196.512.196.707 0 .196-.195.196-.511 0-.707L8.708 8l2.12-2.121c.196-.196.196-.512 0-.707-.195-.196-.511-.196-.707 0L8 7.292z"/>
</svg>
