<svg xmlns="http://www.w3.org/2000/svg" width="32" height="32" viewBox="0 0 32 32">
    <g fill="#FFF">
        <path d="M16 7.467c-1.767 0-3.2 1.432-3.2 3.2.002 1.766 1.433 3.198 3.2 3.2 1.767 0 3.2-1.433 3.2-3.2 0-1.768-1.433-3.2-3.2-3.2zm0 5.333c-1.178 0-2.133-.955-2.133-2.133S14.822 8.533 16 8.533s2.133.956 2.133 2.134S17.178 12.8 16 12.8z"/>
        <path d="M21.718 15.28c-.176-.176-.362-.343-.556-.499l.005-.015C22.925 9.34 20.958 3.403 16.31.099c-.186-.132-.434-.132-.62 0-4.648 3.304-6.615 9.242-4.857 14.667l.005.015c-2.932 2.355-3.401 6.64-1.047 9.573.156.195.322.38.499.556.1.1.235.157.377.157.057 0 .114-.01.168-.028.192-.063.331-.23.36-.43l.402-2.818c.038-.263.263-.457.528-.458h1.624l-.405 2.027c-.059.289.127.57.416.63.035.006.07.01.107.01h4.266c.295 0 .534-.239.534-.533 0-.036-.004-.072-.011-.107l-.405-2.027h1.624c.265 0 .49.196.528.458l.402 2.818c.029.2.168.367.36.43.054.018.111.028.168.028.142 0 .277-.057.377-.157 2.662-2.657 2.665-6.968.008-9.63zM16 1.196c1.282.978 2.354 2.204 3.153 3.604h-6.306c.799-1.4 1.871-2.626 3.153-3.604zm-3.875 19.07c-.795.004-1.468.588-1.584 1.375l-.23 1.617c-.713-1.076-1.042-2.36-.933-3.646.116-1.429.763-2.762 1.812-3.739l1.412 4.394h-.477zm2.392 2.667l.32-1.6h2.326l.32 1.6h-2.966zm-.795-2.666l-1.756-5.463-.117-.365c-.91-2.816-.745-5.87.461-8.572h7.38c1.206 2.702 1.37 5.756.46 8.572l-.116.365-1.756 5.463h-4.556zm7.968 2.991l-.231-1.617c-.116-.787-.789-1.37-1.584-1.374h-.477l1.413-4.394c1.048.977 1.694 2.31 1.811 3.739.109 1.286-.22 2.57-.932 3.646z"/>
        <path d="M13.867 25.024v1.739c-1.295-.396-2.703-.051-3.67.897-.81-.965-2.004-1.523-3.264-1.527-.388 0-.774.054-1.148.16-.43-2.562-2.653-4.436-5.252-4.426H0v1.066h.533c2.18-.006 4.01 1.64 4.233 3.81-.518.301-.967.709-1.317 1.196-.962-.822-2.185-1.273-3.449-1.272v1.066c2.355.003 4.264 1.912 4.267 4.267h1.066c0-1.181-.393-2.33-1.12-3.26.317-.525.777-.948 1.326-1.22.006 0 .011 0 .017-.005.43-.208.9-.315 1.377-.315 1.034.005 2.002.508 2.6 1.35-.303.57-.463 1.205-.466 1.85h1.066c0-.545.154-1.08.445-1.54h-.004c.008-.01.018-.018.025-.029.721-1.06 2.095-1.453 3.268-.938v1.398h1.066v-4.267h-1.066zM31.467 22.933H32v-1.066h-.533c-2.599-.01-4.821 1.864-5.252 4.426-.374-.106-.76-.16-1.148-.16-1.26.004-2.454.561-3.264 1.525-.967-.948-2.375-1.292-3.67-.897v-1.739h-1.066v4.267h1.066v-1.396c1.173-.516 2.547-.122 3.268.937.007.011.017.019.025.029h-.004c.291.461.445.996.445 1.541h1.066c-.003-.645-.163-1.28-.466-1.85.598-.842 1.566-1.345 2.6-1.35.477 0 .948.108 1.377.316l.017.005c.55.271 1.01.694 1.328 1.218-.727.932-1.122 2.08-1.122 3.261h1.066c.003-2.355 1.912-4.264 4.267-4.267v-1.066c-1.264 0-2.487.45-3.449 1.272-.35-.487-.8-.895-1.317-1.197.222-2.168 2.052-3.815 4.233-3.809zM13.333 15.467H14.4V16.534H13.333zM15.467 15.467H16.534V16.534H15.467zM17.6 15.467H18.667V16.534H17.6z"/>
        <path d="M5.867 28.267H6.934V29.334H5.867zM0 19.733H1.067V20.8H0zM29.867 24.533H30.934V25.6H29.867zM25.6 22.4H26.667V23.467H25.6zM19.733 30.933H20.8V32H19.733zM30.933 18.667H32V19.734H30.933z"/>
    </g>
</svg>
