<svg xmlns="http://www.w3.org/2000/svg" width="16" height="17" viewBox="0 0 16 17">
    <path fill-rule="evenodd" d="M14.73 2.393C13.903 1.495 12.767 1 11.53 1c-.923 0-1.769.292-2.514.868-.375.29-.716.646-1.016 1.061-.3-.415-.64-.77-1.016-1.061C6.239 1.292 5.394 1 4.47 1c-1.236 0-2.373.495-3.2 1.393C.45 3.281 0 4.493 0 5.808 0 7.162.504 8.4 1.587 9.707c.968 1.168 2.36 2.355 3.972 3.728.55.47 1.175 1.001 1.822 1.567.172.15.391.233.619.233.228 0 .447-.083.618-.232.648-.567 1.272-1.099 1.823-1.568 1.612-1.374 3.004-2.56 3.972-3.728C15.496 8.4 16 7.162 16 5.808c0-1.314-.45-2.527-1.27-3.415z"/>
</svg>
