<svg xmlns="http://www.w3.org/2000/svg" width="17" height="17" viewBox="0 0 17 17">
    <g opacity="1">
        <g fill="none" fill-rule="evenodd" >
            <path d="M0 0L16 0 16 16 0 16z" transform="translate(.25 .25)"/>
            <path fill="#fff" d="M6.348 10.066V5.59l4.323 2.245-4.323 2.23zm8.256-6.036c-.558-.529-1.183-.531-1.47-.562-2.052-.135-5.13-.135-5.13-.135h-.007s-3.079 0-5.131.135c-.287.03-.912.033-1.47.562-.44.402-.583 1.317-.583 1.317S.667 6.42.667 7.495V8.5c0 1.074.146 2.148.146 2.148s.143.914.583 1.317c.558.529 1.291.512 1.617.567 1.174.102 4.987.134 4.987.134s3.082-.005 5.134-.139c.287-.03.912-.033 1.47-.562.44-.403.583-1.317.583-1.317s.146-1.074.146-2.148V7.495c0-1.074-.146-2.148-.146-2.148s-.143-.915-.583-1.317z" transform="translate(.25 .25)"/>
        </g>
    </g>
</svg>
